  0
SECTION
  2
HEADER
  9
$ANGBASE
  50
0.0
  9
$ANGDIR
  70
1
  9
$MEASUREMENT
  70
0
  0
ENDSEC
  0
SECTION
  2
TABLES
  0
TABLE
  2
LTYPE
  70
4
  0
LTYPE
  5
40F
  2
CONTINUOUS
  70
0
  3
Solid line
  72
65
  73
0
  40
0.0
  0
LTYPE
  5
410
  2
DASHDOT
 70
0
  3
Dash Dot ____ _ ____ _
 72
65
 73
4
 40
2.0
 49
1.25
 49
-0.25
 49
0.25
 49
-0.25
  0
LTYPE
  5
411
  2
DASHED
 70
0
  3
Dashed __ __ __ __ __
 72
65
 73
2
 40
0.75
 49
0.5
 49
-0.25
  0
LTYPE
  5
43B
  2
DOTTED
 70
0
  3
Dotted .  .  .  .
 72
65
 73
2
 40
0.2
 49
0.0
 49
-0.2
  0
ENDTAB
  0
TABLE
  2
STYLE
  70
4
  0
STYLE
  2
KICAD
  70
0
  40
0
  41
1
  42
1
  50
0
  71
0
  3
isocp.shx
  0
STYLE
  2
KICADB
  70
0
  40
0
  41
1
  42
1
  50
0
  71
0
  3
isocp.shx
  0
STYLE
  2
KICADI
  70
0
  40
0
  41
1
  42
1
  50
15
  71
0
  3
isocp.shx
  0
STYLE
  2
KICADBI
  70
0
  40
0
  41
1
  42
1
  50
15
  71
0
  3
isocp.shx
  0
ENDTAB
  0
TABLE
  2
LAYER
  70
1
  0
LAYER
  2
BLACK
  70
0
  62
7
  6
CONTINUOUS
  0
ENDTAB
  0
ENDSEC
  0
SECTION
  2
ENTITIES
0
LINE
8
BLACK
6
CONTINUOUS
10
10.7
20
-1.09902
11
10.7
21
-1.09902
0
LINE
8
BLACK
6
CONTINUOUS
10
10.7
20
-1.09902
11
10.7002
21
-1.09903
0
LINE
8
BLACK
6
CONTINUOUS
10
10.7002
20
-1.09903
11
10.7004
21
-1.09909
0
LINE
8
BLACK
6
CONTINUOUS
10
10.7004
20
-1.09909
11
10.7005
21
-1.09918
0
LINE
8
BLACK
6
CONTINUOUS
10
10.7005
20
-1.09918
11
10.7007
21
-1.0993
0
LINE
8
BLACK
6
CONTINUOUS
10
10.7007
20
-1.0993
11
10.7008
21
-1.09945
0
LINE
8
BLACK
6
CONTINUOUS
10
10.7008
20
-1.09945
11
10.7009
21
-1.09962
0
LINE
8
BLACK
6
CONTINUOUS
10
10.7009
20
-1.09962
11
10.701
21
-1.09981
0
LINE
8
BLACK
6
CONTINUOUS
10
10.701
20
-1.09981
11
10.701
21
-1.1
0
LINE
8
BLACK
6
CONTINUOUS
10
10.701
20
-1.1
11
10.701
21
-1.10005
0
LINE
8
BLACK
6
CONTINUOUS
10
10.701
20
-1.10005
11
10.701
21
-7.09995
0
LINE
8
BLACK
6
CONTINUOUS
10
10.701
20
-7.09995
11
10.701
21
-7.1
0
LINE
8
BLACK
6
CONTINUOUS
10
10.701
20
-7.1
11
10.701
21
-7.10005
0
LINE
8
BLACK
6
CONTINUOUS
10
10.701
20
-7.10005
11
10.701
21
-7.10005
0
LINE
8
BLACK
6
CONTINUOUS
10
10.701
20
-7.10005
11
10.701
21
-7.10019
0
LINE
8
BLACK
6
CONTINUOUS
10
10.701
20
-7.10019
11
10.7009
21
-7.10038
0
LINE
8
BLACK
6
CONTINUOUS
10
10.7009
20
-7.10038
11
10.7008
21
-7.10055
0
LINE
8
BLACK
6
CONTINUOUS
10
10.7008
20
-7.10055
11
10.7007
21
-7.1007
0
LINE
8
BLACK
6
CONTINUOUS
10
10.7007
20
-7.1007
11
10.7005
21
-7.10082
0
LINE
8
BLACK
6
CONTINUOUS
10
10.7005
20
-7.10082
11
10.7004
21
-7.10091
0
LINE
8
BLACK
6
CONTINUOUS
10
10.7004
20
-7.10091
11
10.7002
21
-7.10097
0
LINE
8
BLACK
6
CONTINUOUS
10
10.7002
20
-7.10097
11
10.7
21
-7.10099
0
LINE
8
BLACK
6
CONTINUOUS
10
10.7
20
-7.10099
11
10.7
21
-7.10098
0
LINE
8
BLACK
6
CONTINUOUS
10
10.7
20
-7.10098
11
0.800048
21
-7.10098
0
LINE
8
BLACK
6
CONTINUOUS
10
0.800048
20
-7.10098
11
0.8
21
-7.10099
0
LINE
8
BLACK
6
CONTINUOUS
10
0.8
20
-7.10099
11
0.799807
21
-7.10097
0
LINE
8
BLACK
6
CONTINUOUS
10
0.799807
20
-7.10097
11
0.799622
21
-7.10091
0
LINE
8
BLACK
6
CONTINUOUS
10
0.799622
20
-7.10091
11
0.799451
21
-7.10082
0
LINE
8
BLACK
6
CONTINUOUS
10
0.799451
20
-7.10082
11
0.799301
21
-7.1007
0
LINE
8
BLACK
6
CONTINUOUS
10
0.799301
20
-7.1007
11
0.799178
21
-7.10055
0
LINE
8
BLACK
6
CONTINUOUS
10
0.799178
20
-7.10055
11
0.799086
21
-7.10038
0
LINE
8
BLACK
6
CONTINUOUS
10
0.799086
20
-7.10038
11
0.79903
21
-7.10019
0
LINE
8
BLACK
6
CONTINUOUS
10
0.79903
20
-7.10019
11
0.799011
21
-7.1
0
LINE
8
BLACK
6
CONTINUOUS
10
0.799011
20
-7.1
11
0.799016
21
-7.09995
0
LINE
8
BLACK
6
CONTINUOUS
10
0.799016
20
-7.09995
11
0.799016
21
-1.10005
0
LINE
8
BLACK
6
CONTINUOUS
10
0.799016
20
-1.10005
11
0.799011
21
-1.1
0
LINE
8
BLACK
6
CONTINUOUS
10
0.799011
20
-1.1
11
0.79903
21
-1.09981
0
LINE
8
BLACK
6
CONTINUOUS
10
0.79903
20
-1.09981
11
0.799086
21
-1.09962
0
LINE
8
BLACK
6
CONTINUOUS
10
0.799086
20
-1.09962
11
0.799178
21
-1.09945
0
LINE
8
BLACK
6
CONTINUOUS
10
0.799178
20
-1.09945
11
0.799301
21
-1.0993
0
LINE
8
BLACK
6
CONTINUOUS
10
0.799301
20
-1.0993
11
0.799451
21
-1.09918
0
LINE
8
BLACK
6
CONTINUOUS
10
0.799451
20
-1.09918
11
0.799622
21
-1.09909
0
LINE
8
BLACK
6
CONTINUOUS
10
0.799622
20
-1.09909
11
0.799807
21
-1.09903
0
LINE
8
BLACK
6
CONTINUOUS
10
0.799807
20
-1.09903
11
0.799952
21
-1.09902
0
LINE
8
BLACK
6
CONTINUOUS
10
0.799952
20
-1.09902
11
0.799952
21
-1.09902
0
LINE
8
BLACK
6
CONTINUOUS
10
0.799952
20
-1.09902
11
0.8
21
-1.09901
0
LINE
8
BLACK
6
CONTINUOUS
10
0.8
20
-1.09901
11
0.800048
21
-1.09902
0
LINE
8
BLACK
6
CONTINUOUS
10
0.800048
20
-1.09902
11
10.7
21
-1.09902
0
LINE
8
BLACK
6
CONTINUOUS
10
10.7
20
-1.09902
11
10.7
21
-1.09901
0
LINE
8
BLACK
6
CONTINUOUS
10
10.7
20
-1.09901
11
10.7
21
-1.09902
0
LINE
8
BLACK
6
CONTINUOUS
10
0.800984
20
-1.10098
11
0.800984
21
-7.09902
0
LINE
8
BLACK
6
CONTINUOUS
10
0.800984
20
-7.09902
11
10.699
21
-7.09902
0
LINE
8
BLACK
6
CONTINUOUS
10
10.699
20
-7.09902
11
10.699
21
-1.10098
0
LINE
8
BLACK
6
CONTINUOUS
10
10.699
20
-1.10098
11
0.800984
21
-1.10098
  0
ENDSEC
  0
EOF
