%TF.GenerationSoftware,KiCad,Pcbnew,5.1.9-73d0e3b20d~88~ubuntu20.04.1*%
%TF.CreationDate,2021-05-02T14:23:53-04:00*%
%TF.ProjectId,phono-amp,70686f6e-6f2d-4616-9d70-2e6b69636164,rev?*%
%TF.SameCoordinates,Original*%
%TF.FileFunction,Soldermask,Bot*%
%TF.FilePolarity,Negative*%
%FSLAX46Y46*%
G04 Gerber Fmt 4.6, Leading zero omitted, Abs format (unit mm)*
G04 Created by KiCad (PCBNEW 5.1.9-73d0e3b20d~88~ubuntu20.04.1) date 2021-05-02 14:23:53*
%MOMM*%
%LPD*%
G01*
G04 APERTURE LIST*
%ADD10C,1.778000*%
%ADD11R,1.600000X1.600000*%
%ADD12C,1.600000*%
%ADD13C,2.000000*%
%ADD14R,2.000000X2.000000*%
%ADD15C,3.000000*%
%ADD16C,4.000000*%
%ADD17C,1.270000*%
%ADD18O,1.500000X2.020000*%
%ADD19C,2.400000*%
%ADD20O,2.400000X2.400000*%
%ADD21O,1.600000X1.600000*%
%ADD22O,2.800000X2.800000*%
%ADD23C,7.600000*%
%ADD24R,1.700000X1.700000*%
%ADD25O,1.700000X1.700000*%
G04 APERTURE END LIST*
D10*
%TO.C,C2*%
X127635000Y-77310000D03*
X127635000Y-67810000D03*
%TD*%
%TO.C,C3*%
X163195000Y-76970000D03*
X163195000Y-67470000D03*
%TD*%
%TO.C,C4*%
X195650000Y-101600000D03*
X172650000Y-101600000D03*
%TD*%
D11*
%TO.C,C5*%
X104775000Y-121920000D03*
D12*
X102775000Y-121920000D03*
%TD*%
%TO.C,C6*%
X149860000Y-108680000D03*
D11*
X149860000Y-106680000D03*
%TD*%
D13*
%TO.C,C7*%
X95250000Y-85010000D03*
D14*
X95250000Y-80010000D03*
%TD*%
%TO.C,C8*%
X149860000Y-132080000D03*
D13*
X149860000Y-127080000D03*
%TD*%
D10*
%TO.C,C1A1*%
X151765000Y-67810000D03*
X151765000Y-77310000D03*
%TD*%
%TO.C,C1B1*%
X143510000Y-77310000D03*
X143510000Y-67810000D03*
%TD*%
%TO.C,C1C1*%
X135890000Y-67810000D03*
X135890000Y-77310000D03*
%TD*%
D15*
%TO.C,J1*%
X72850000Y-93980000D03*
D16*
X79350000Y-93980000D03*
%TD*%
D17*
%TO.C,J2*%
X96060000Y-144090000D03*
X117060000Y-144090000D03*
G36*
G01*
X98310000Y-146810000D02*
X98310000Y-145290000D01*
G75*
G02*
X98560000Y-145040000I250000J0D01*
G01*
X99560000Y-145040000D01*
G75*
G02*
X99810000Y-145290000I0J-250000D01*
G01*
X99810000Y-146810000D01*
G75*
G02*
X99560000Y-147060000I-250000J0D01*
G01*
X98560000Y-147060000D01*
G75*
G02*
X98310000Y-146810000I0J250000D01*
G01*
G37*
D18*
X102060000Y-146050000D03*
X105060000Y-146050000D03*
X108060000Y-146050000D03*
X111060000Y-146050000D03*
X114060000Y-146050000D03*
%TD*%
D16*
%TO.C,J3*%
X212750000Y-92710000D03*
D15*
X219250000Y-92710000D03*
%TD*%
D19*
%TO.C,R1*%
X73025000Y-102870000D03*
D20*
X88265000Y-102870000D03*
%TD*%
D19*
%TO.C,R2*%
X111125000Y-102870000D03*
D20*
X95885000Y-102870000D03*
%TD*%
%TO.C,R3*%
X111125000Y-113030000D03*
D19*
X95885000Y-113030000D03*
%TD*%
D20*
%TO.C,R4*%
X106680000Y-73660000D03*
D19*
X106680000Y-93980000D03*
%TD*%
D21*
%TO.C,R5*%
X114935000Y-91440000D03*
D12*
X114935000Y-81280000D03*
%TD*%
D21*
%TO.C,R7*%
X160020000Y-94615000D03*
D12*
X149860000Y-94615000D03*
%TD*%
D19*
%TO.C,R8*%
X147320000Y-87630000D03*
D20*
X162560000Y-87630000D03*
%TD*%
D19*
%TO.C,R9*%
X137795000Y-121285000D03*
D20*
X137795000Y-141605000D03*
%TD*%
%TO.C,R10*%
X158750000Y-100330000D03*
D19*
X158750000Y-115570000D03*
%TD*%
D12*
%TO.C,R11*%
X185420000Y-111125000D03*
D21*
X195580000Y-111125000D03*
%TD*%
%TO.C,R12*%
X111760000Y-133350000D03*
D12*
X101600000Y-133350000D03*
%TD*%
D20*
%TO.C,R13*%
X95250000Y-71120000D03*
D19*
X95250000Y-55880000D03*
%TD*%
D12*
%TO.C,R6A1*%
X120650000Y-76835000D03*
D21*
X120650000Y-66675000D03*
%TD*%
D12*
%TO.C,R6B1*%
X114935000Y-66675000D03*
D21*
X114935000Y-76835000D03*
%TD*%
D22*
%TO.C,U1*%
X121045322Y-96698255D03*
X119040000Y-102870000D03*
X121045322Y-109041745D03*
X126295322Y-112856093D03*
X132784678Y-112856093D03*
X138034678Y-109041745D03*
X140040000Y-102870000D03*
X138034678Y-96698255D03*
X132784678Y-92883907D03*
D13*
X129540000Y-88620000D03*
%TD*%
D23*
%TO.C,H1*%
X74930000Y-41910000D03*
%TD*%
%TO.C,H2*%
X217170000Y-41910000D03*
%TD*%
%TO.C,H3*%
X74930000Y-147320000D03*
%TD*%
%TO.C,H4*%
X217170000Y-147320000D03*
%TD*%
%TO.C,H5*%
X74930000Y-72390000D03*
%TD*%
D24*
%TO.C,JP1*%
X127000000Y-102870000D03*
D25*
X129540000Y-102870000D03*
X132080000Y-102870000D03*
%TD*%
M02*
