%TF.GenerationSoftware,KiCad,Pcbnew,5.1.9-73d0e3b20d~88~ubuntu20.04.1*%
%TF.CreationDate,2021-05-02T14:23:53-04:00*%
%TF.ProjectId,phono-amp,70686f6e-6f2d-4616-9d70-2e6b69636164,rev?*%
%TF.SameCoordinates,Original*%
%TF.FileFunction,Copper,L1,Top*%
%TF.FilePolarity,Positive*%
%FSLAX46Y46*%
G04 Gerber Fmt 4.6, Leading zero omitted, Abs format (unit mm)*
G04 Created by KiCad (PCBNEW 5.1.9-73d0e3b20d~88~ubuntu20.04.1) date 2021-05-02 14:23:53*
%MOMM*%
%LPD*%
G01*
G04 APERTURE LIST*
%TA.AperFunction,ComponentPad*%
%ADD10C,1.778000*%
%TD*%
%TA.AperFunction,ComponentPad*%
%ADD11R,1.600000X1.600000*%
%TD*%
%TA.AperFunction,ComponentPad*%
%ADD12C,1.600000*%
%TD*%
%TA.AperFunction,ComponentPad*%
%ADD13C,2.000000*%
%TD*%
%TA.AperFunction,ComponentPad*%
%ADD14R,2.000000X2.000000*%
%TD*%
%TA.AperFunction,ComponentPad*%
%ADD15C,3.000000*%
%TD*%
%TA.AperFunction,ComponentPad*%
%ADD16C,4.000000*%
%TD*%
%TA.AperFunction,ComponentPad*%
%ADD17O,1.500000X2.020000*%
%TD*%
%TA.AperFunction,ComponentPad*%
%ADD18C,2.400000*%
%TD*%
%TA.AperFunction,ComponentPad*%
%ADD19O,2.400000X2.400000*%
%TD*%
%TA.AperFunction,ComponentPad*%
%ADD20O,1.600000X1.600000*%
%TD*%
%TA.AperFunction,ComponentPad*%
%ADD21O,2.800000X2.800000*%
%TD*%
%TA.AperFunction,ComponentPad*%
%ADD22C,7.600000*%
%TD*%
%TA.AperFunction,ComponentPad*%
%ADD23R,1.700000X1.700000*%
%TD*%
%TA.AperFunction,ComponentPad*%
%ADD24O,1.700000X1.700000*%
%TD*%
%TA.AperFunction,Conductor*%
%ADD25C,1.016000*%
%TD*%
G04 APERTURE END LIST*
D10*
%TO.P,C2,2*%
%TO.N,GND*%
X127635000Y-77310000D03*
%TO.P,C2,1*%
%TO.N,Net-(C2-Pad1)*%
X127635000Y-67810000D03*
%TD*%
%TO.P,C3,1*%
%TO.N,Net-(C3-Pad1)*%
X163195000Y-76970000D03*
%TO.P,C3,2*%
%TO.N,Net-(C2-Pad1)*%
X163195000Y-67470000D03*
%TD*%
%TO.P,C4,1*%
%TO.N,Net-(C4-Pad1)*%
X195650000Y-101600000D03*
%TO.P,C4,2*%
%TO.N,Net-(C4-Pad2)*%
X172650000Y-101600000D03*
%TD*%
D11*
%TO.P,C5,1*%
%TO.N,Net-(C5-Pad1)*%
X104775000Y-121920000D03*
D12*
%TO.P,C5,2*%
%TO.N,GND*%
X102775000Y-121920000D03*
%TD*%
%TO.P,C6,2*%
%TO.N,GND*%
X149860000Y-108680000D03*
D11*
%TO.P,C6,1*%
%TO.N,Net-(C6-Pad1)*%
X149860000Y-106680000D03*
%TD*%
D13*
%TO.P,C7,2*%
%TO.N,GND*%
X95250000Y-85010000D03*
D14*
%TO.P,C7,1*%
%TO.N,Net-(C7-Pad1)*%
X95250000Y-80010000D03*
%TD*%
%TO.P,C8,1*%
%TO.N,VBUS*%
X149860000Y-132080000D03*
D13*
%TO.P,C8,2*%
%TO.N,GND*%
X149860000Y-127080000D03*
%TD*%
D10*
%TO.P,C1A1,1*%
%TO.N,Net-(C1A1-Pad1)*%
X151765000Y-67810000D03*
%TO.P,C1A1,2*%
%TO.N,GND*%
X151765000Y-77310000D03*
%TD*%
%TO.P,C1B1,2*%
%TO.N,GND*%
X143510000Y-77310000D03*
%TO.P,C1B1,1*%
%TO.N,Net-(C1A1-Pad1)*%
X143510000Y-67810000D03*
%TD*%
%TO.P,C1C1,1*%
%TO.N,Net-(C1A1-Pad1)*%
X135890000Y-67810000D03*
%TO.P,C1C1,2*%
%TO.N,GND*%
X135890000Y-77310000D03*
%TD*%
D15*
%TO.P,J1,1*%
%TO.N,Net-(J1-Pad1)*%
X72850000Y-93980000D03*
D16*
%TO.P,J1,2*%
%TO.N,GND*%
X79350000Y-93980000D03*
%TD*%
%TO.P,J2,1*%
%TO.N,VBUS*%
%TA.AperFunction,ComponentPad*%
G36*
G01*
X98310000Y-146810000D02*
X98310000Y-145290000D01*
G75*
G02*
X98560000Y-145040000I250000J0D01*
G01*
X99560000Y-145040000D01*
G75*
G02*
X99810000Y-145290000I0J-250000D01*
G01*
X99810000Y-146810000D01*
G75*
G02*
X99560000Y-147060000I-250000J0D01*
G01*
X98560000Y-147060000D01*
G75*
G02*
X98310000Y-146810000I0J250000D01*
G01*
G37*
%TD.AperFunction*%
D17*
%TO.P,J2,2*%
%TO.N,GND*%
X102060000Y-146050000D03*
%TO.P,J2,3*%
%TO.N,Earth_Protective*%
X105060000Y-146050000D03*
%TO.P,J2,4*%
%TO.N,Net-(J2-Pad4)*%
X108060000Y-146050000D03*
%TO.P,J2,5*%
%TO.N,Net-(J2-Pad5)*%
X111060000Y-146050000D03*
%TO.P,J2,6*%
%TO.N,Net-(J2-Pad6)*%
X114060000Y-146050000D03*
%TD*%
D16*
%TO.P,J3,2*%
%TO.N,GND*%
X212750000Y-92710000D03*
D15*
%TO.P,J3,1*%
%TO.N,Net-(C4-Pad1)*%
X219250000Y-92710000D03*
%TD*%
D18*
%TO.P,R1,1*%
%TO.N,GND*%
X73025000Y-102870000D03*
D19*
%TO.P,R1,2*%
%TO.N,Net-(J1-Pad1)*%
X88265000Y-102870000D03*
%TD*%
D18*
%TO.P,R2,1*%
%TO.N,Net-(R2-Pad1)*%
X111125000Y-102870000D03*
D19*
%TO.P,R2,2*%
%TO.N,Net-(J1-Pad1)*%
X95885000Y-102870000D03*
%TD*%
%TO.P,R3,2*%
%TO.N,Net-(C5-Pad1)*%
X111125000Y-113030000D03*
D18*
%TO.P,R3,1*%
%TO.N,GND*%
X95885000Y-113030000D03*
%TD*%
D19*
%TO.P,R4,2*%
%TO.N,Net-(C7-Pad1)*%
X106680000Y-73660000D03*
D18*
%TO.P,R4,1*%
%TO.N,Net-(R4-Pad1)*%
X106680000Y-93980000D03*
%TD*%
D20*
%TO.P,R5,2*%
%TO.N,Net-(R4-Pad1)*%
X114935000Y-91440000D03*
D12*
%TO.P,R5,1*%
%TO.N,Net-(C2-Pad1)*%
X114935000Y-81280000D03*
%TD*%
D20*
%TO.P,R7,2*%
%TO.N,Net-(C3-Pad1)*%
X160020000Y-94615000D03*
D12*
%TO.P,R7,1*%
%TO.N,GND*%
X149860000Y-94615000D03*
%TD*%
D18*
%TO.P,R8,1*%
%TO.N,Net-(R8-Pad1)*%
X147320000Y-87630000D03*
D19*
%TO.P,R8,2*%
%TO.N,Net-(C3-Pad1)*%
X162560000Y-87630000D03*
%TD*%
D18*
%TO.P,R9,1*%
%TO.N,Net-(C4-Pad2)*%
X137795000Y-121285000D03*
D19*
%TO.P,R9,2*%
%TO.N,VBUS*%
X137795000Y-141605000D03*
%TD*%
%TO.P,R10,2*%
%TO.N,Net-(C6-Pad1)*%
X158750000Y-100330000D03*
D18*
%TO.P,R10,1*%
%TO.N,GND*%
X158750000Y-115570000D03*
%TD*%
D12*
%TO.P,R11,1*%
%TO.N,GND*%
X185420000Y-111125000D03*
D20*
%TO.P,R11,2*%
%TO.N,Net-(C4-Pad1)*%
X195580000Y-111125000D03*
%TD*%
%TO.P,R12,2*%
%TO.N,Net-(J2-Pad5)*%
X111760000Y-133350000D03*
D12*
%TO.P,R12,1*%
%TO.N,GND*%
X101600000Y-133350000D03*
%TD*%
D19*
%TO.P,R13,2*%
%TO.N,Net-(C7-Pad1)*%
X95250000Y-71120000D03*
D18*
%TO.P,R13,1*%
%TO.N,VBUS*%
X95250000Y-55880000D03*
%TD*%
D12*
%TO.P,R6A1,1*%
%TO.N,Net-(C1A1-Pad1)*%
X120650000Y-76835000D03*
D20*
%TO.P,R6A1,2*%
%TO.N,Net-(R6A1-Pad2)*%
X120650000Y-66675000D03*
%TD*%
D12*
%TO.P,R6B1,1*%
%TO.N,Net-(R6A1-Pad2)*%
X114935000Y-66675000D03*
D20*
%TO.P,R6B1,2*%
%TO.N,Net-(C2-Pad1)*%
X114935000Y-76835000D03*
%TD*%
D21*
%TO.P,U1,1*%
%TO.N,Net-(R4-Pad1)*%
X121045322Y-96698255D03*
%TO.P,U1,2*%
%TO.N,Net-(R2-Pad1)*%
X119040000Y-102870000D03*
%TO.P,U1,3*%
%TO.N,Net-(C5-Pad1)*%
X121045322Y-109041745D03*
%TO.P,U1,4*%
%TO.N,Net-(J2-Pad4)*%
X126295322Y-112856093D03*
%TO.P,U1,5*%
%TO.N,Net-(J2-Pad6)*%
X132784678Y-112856093D03*
%TO.P,U1,6*%
%TO.N,Net-(C4-Pad2)*%
X138034678Y-109041745D03*
%TO.P,U1,7*%
%TO.N,Net-(R8-Pad1)*%
X140040000Y-102870000D03*
%TO.P,U1,8*%
%TO.N,Net-(C6-Pad1)*%
X138034678Y-96698255D03*
%TO.P,U1,9*%
%TO.N,GND*%
X132784678Y-92883907D03*
D13*
%TO.P,U1,10*%
%TO.N,Net-(JP1-Pad2)*%
X129540000Y-88620000D03*
%TD*%
D22*
%TO.P,H1,1*%
%TO.N,Earth_Protective*%
X74930000Y-41910000D03*
%TD*%
%TO.P,H2,1*%
%TO.N,Earth_Protective*%
X217170000Y-41910000D03*
%TD*%
%TO.P,H3,1*%
%TO.N,Earth_Protective*%
X74930000Y-147320000D03*
%TD*%
%TO.P,H4,1*%
%TO.N,Earth_Protective*%
X217170000Y-147320000D03*
%TD*%
%TO.P,H5,1*%
%TO.N,GND*%
X74930000Y-72390000D03*
%TD*%
D23*
%TO.P,JP1,1*%
%TO.N,Earth_Protective*%
X127000000Y-102870000D03*
D24*
%TO.P,JP1,2*%
%TO.N,Net-(JP1-Pad2)*%
X129540000Y-102870000D03*
%TO.P,JP1,3*%
%TO.N,GND*%
X132080000Y-102870000D03*
%TD*%
D25*
%TO.N,GND*%
X101600000Y-133350000D02*
X101600000Y-145415000D01*
X101600000Y-145415000D02*
X102235000Y-146050000D01*
%TO.N,Net-(C2-Pad1)*%
X114935000Y-81280000D02*
X114935000Y-76835000D01*
X114935000Y-76835000D02*
X120015000Y-71755000D01*
X120015000Y-71755000D02*
X124460000Y-71755000D01*
X124460000Y-71755000D02*
X127635000Y-68580000D01*
X127635000Y-68580000D02*
X127635000Y-67945000D01*
X127635000Y-67810000D02*
X133215000Y-62230000D01*
X133215000Y-62230000D02*
X158115000Y-62230000D01*
X158115000Y-62230000D02*
X163195000Y-67310000D01*
%TO.N,Net-(C3-Pad1)*%
X163195000Y-76970000D02*
X163195000Y-86995000D01*
X163195000Y-86995000D02*
X162560000Y-87630000D01*
X162560000Y-87630000D02*
X162560000Y-92075000D01*
X162560000Y-92075000D02*
X160020000Y-94615000D01*
%TO.N,Net-(C4-Pad1)*%
X195650000Y-101600000D02*
X213360000Y-101600000D01*
X213360000Y-101600000D02*
X219075000Y-95885000D01*
X219075000Y-95885000D02*
X219075000Y-92710000D01*
X195650000Y-101600000D02*
X195650000Y-111055000D01*
X195650000Y-111055000D02*
X195580000Y-111125000D01*
%TO.N,Net-(C4-Pad2)*%
X143292933Y-114300000D02*
X152400000Y-114300000D01*
X152400000Y-114300000D02*
X165100000Y-101600000D01*
X165100000Y-101600000D02*
X172720000Y-101600000D01*
X137795000Y-121285000D02*
X137795000Y-114935000D01*
X137795000Y-114935000D02*
X140861467Y-111868533D01*
X140861467Y-111868533D02*
X143292933Y-114300000D01*
X138034678Y-109041745D02*
X140861467Y-111868533D01*
%TO.N,Net-(C5-Pad1)*%
X111125000Y-113030000D02*
X117475000Y-113030000D01*
X117475000Y-113030000D02*
X121285000Y-109220000D01*
X104775000Y-121920000D02*
X106045000Y-121920000D01*
X106045000Y-121920000D02*
X111125000Y-116840000D01*
X111125000Y-116840000D02*
X111125000Y-113030000D01*
%TO.N,Net-(C6-Pad1)*%
X138034678Y-96698255D02*
X135890000Y-98842933D01*
X135890000Y-98842933D02*
X135890000Y-104140000D01*
X135890000Y-104140000D02*
X137160000Y-105410000D01*
X137160000Y-105410000D02*
X137795000Y-106045000D01*
X137795000Y-106045000D02*
X149225000Y-106045000D01*
X149225000Y-106045000D02*
X149860000Y-106680000D01*
X149860000Y-106680000D02*
X152400000Y-106680000D01*
X152400000Y-106680000D02*
X158750000Y-100330000D01*
%TO.N,Net-(C7-Pad1)*%
X106680000Y-73660000D02*
X101600000Y-73660000D01*
X101600000Y-73660000D02*
X95250000Y-80010000D01*
X95250000Y-71120000D02*
X95250000Y-80645000D01*
%TO.N,VBUS*%
X137795000Y-141605000D02*
X137795000Y-146586990D01*
X137795000Y-146586990D02*
X132715000Y-151666990D01*
X132715000Y-151666990D02*
X102136990Y-151666990D01*
X102136990Y-151666990D02*
X99060000Y-148590000D01*
X137795000Y-141605000D02*
X140335000Y-141605000D01*
X140335000Y-141605000D02*
X149860000Y-132080000D01*
X95250000Y-55880000D02*
X102870000Y-48260000D01*
X102870000Y-48260000D02*
X177165000Y-48260000D01*
X177165000Y-48260000D02*
X181610000Y-52705000D01*
X181610000Y-52705000D02*
X181610000Y-133350000D01*
X168373010Y-146586990D02*
X137795000Y-146586990D01*
X181610000Y-133350000D02*
X168373010Y-146586990D01*
X99060000Y-148590000D02*
X99060000Y-146050000D01*
%TO.N,Net-(C1A1-Pad1)*%
X120650000Y-76835000D02*
X123190000Y-76835000D01*
X123190000Y-76835000D02*
X127000000Y-73025000D01*
X127000000Y-73025000D02*
X130810000Y-73025000D01*
X130810000Y-73025000D02*
X135890000Y-67945000D01*
X135890000Y-67810000D02*
X143375000Y-67810000D01*
X143375000Y-67810000D02*
X143510000Y-67945000D01*
X143510000Y-67810000D02*
X152265000Y-67810000D01*
X152265000Y-67810000D02*
X152400000Y-67945000D01*
%TO.N,Net-(J1-Pad1)*%
X72850000Y-93980000D02*
X81740000Y-102870000D01*
X81740000Y-102870000D02*
X88265000Y-102870000D01*
X88265000Y-102870000D02*
X95885000Y-102870000D01*
%TO.N,Earth_Protective*%
X127000000Y-102870000D02*
X127000000Y-107315000D01*
X127000000Y-107315000D02*
X118745000Y-115570000D01*
X118745000Y-115570000D02*
X118745000Y-130810000D01*
X118745000Y-130810000D02*
X104775000Y-144780000D01*
X104775000Y-144780000D02*
X104775000Y-146050000D01*
%TO.N,Net-(J2-Pad4)*%
X125095000Y-128905000D02*
X125095000Y-114300000D01*
X108060000Y-145940000D02*
X125095000Y-128905000D01*
X125095000Y-114300000D02*
X126365000Y-113030000D01*
%TO.N,Net-(J2-Pad6)*%
X114060000Y-142480000D02*
X128905000Y-127635000D01*
X128905000Y-127635000D02*
X128905000Y-119380000D01*
X128905000Y-119380000D02*
X132715000Y-115570000D01*
X132715000Y-115570000D02*
X132715000Y-113030000D01*
X114060000Y-142480000D02*
X114060000Y-145810000D01*
X114060000Y-145810000D02*
X114300000Y-146050000D01*
%TO.N,Net-(R2-Pad1)*%
X111125000Y-102870000D02*
X119380000Y-102870000D01*
%TO.N,Net-(R4-Pad1)*%
X121045322Y-96698255D02*
X120193255Y-96698255D01*
X120193255Y-96698255D02*
X114935000Y-91440000D01*
X114935000Y-91440000D02*
X108585000Y-91440000D01*
X108585000Y-91440000D02*
X106045000Y-93980000D01*
%TO.N,Net-(R8-Pad1)*%
X147320000Y-87630000D02*
X144780000Y-90170000D01*
X144780000Y-90170000D02*
X144780000Y-97790000D01*
X144780000Y-97790000D02*
X139700000Y-102870000D01*
%TO.N,Net-(R6A1-Pad2)*%
X114935000Y-66675000D02*
X120650000Y-66675000D01*
%TO.N,Net-(JP1-Pad2)*%
X129540000Y-88620000D02*
X127000000Y-91160000D01*
X127000000Y-91160000D02*
X127000000Y-95885000D01*
X127000000Y-95885000D02*
X129540000Y-98425000D01*
X129540000Y-98425000D02*
X129540000Y-102870000D01*
%TD*%
M02*
