%TF.GenerationSoftware,KiCad,Pcbnew,5.1.9-73d0e3b20d~88~ubuntu20.04.1*%
%TF.CreationDate,2021-05-02T14:23:53-04:00*%
%TF.ProjectId,phono-amp,70686f6e-6f2d-4616-9d70-2e6b69636164,rev?*%
%TF.SameCoordinates,Original*%
%TF.FileFunction,Copper,L2,Bot*%
%TF.FilePolarity,Positive*%
%FSLAX46Y46*%
G04 Gerber Fmt 4.6, Leading zero omitted, Abs format (unit mm)*
G04 Created by KiCad (PCBNEW 5.1.9-73d0e3b20d~88~ubuntu20.04.1) date 2021-05-02 14:23:53*
%MOMM*%
%LPD*%
G01*
G04 APERTURE LIST*
%TA.AperFunction,ComponentPad*%
%ADD10C,1.778000*%
%TD*%
%TA.AperFunction,ComponentPad*%
%ADD11R,1.600000X1.600000*%
%TD*%
%TA.AperFunction,ComponentPad*%
%ADD12C,1.600000*%
%TD*%
%TA.AperFunction,ComponentPad*%
%ADD13C,2.000000*%
%TD*%
%TA.AperFunction,ComponentPad*%
%ADD14R,2.000000X2.000000*%
%TD*%
%TA.AperFunction,ComponentPad*%
%ADD15C,3.000000*%
%TD*%
%TA.AperFunction,ComponentPad*%
%ADD16C,4.000000*%
%TD*%
%TA.AperFunction,ComponentPad*%
%ADD17O,1.500000X2.020000*%
%TD*%
%TA.AperFunction,ComponentPad*%
%ADD18C,2.400000*%
%TD*%
%TA.AperFunction,ComponentPad*%
%ADD19O,2.400000X2.400000*%
%TD*%
%TA.AperFunction,ComponentPad*%
%ADD20O,1.600000X1.600000*%
%TD*%
%TA.AperFunction,ComponentPad*%
%ADD21O,2.800000X2.800000*%
%TD*%
%TA.AperFunction,ComponentPad*%
%ADD22C,7.600000*%
%TD*%
%TA.AperFunction,ComponentPad*%
%ADD23R,1.700000X1.700000*%
%TD*%
%TA.AperFunction,ComponentPad*%
%ADD24O,1.700000X1.700000*%
%TD*%
%TA.AperFunction,Conductor*%
%ADD25C,1.016000*%
%TD*%
%TA.AperFunction,Conductor*%
%ADD26C,2.540000*%
%TD*%
%TA.AperFunction,Conductor*%
%ADD27C,0.254000*%
%TD*%
%TA.AperFunction,Conductor*%
%ADD28C,0.100000*%
%TD*%
G04 APERTURE END LIST*
D10*
%TO.P,C2,2*%
%TO.N,GND*%
X127635000Y-77310000D03*
%TO.P,C2,1*%
%TO.N,Net-(C2-Pad1)*%
X127635000Y-67810000D03*
%TD*%
%TO.P,C3,1*%
%TO.N,Net-(C3-Pad1)*%
X163195000Y-76970000D03*
%TO.P,C3,2*%
%TO.N,Net-(C2-Pad1)*%
X163195000Y-67470000D03*
%TD*%
%TO.P,C4,1*%
%TO.N,Net-(C4-Pad1)*%
X195650000Y-101600000D03*
%TO.P,C4,2*%
%TO.N,Net-(C4-Pad2)*%
X172650000Y-101600000D03*
%TD*%
D11*
%TO.P,C5,1*%
%TO.N,Net-(C5-Pad1)*%
X104775000Y-121920000D03*
D12*
%TO.P,C5,2*%
%TO.N,GND*%
X102775000Y-121920000D03*
%TD*%
%TO.P,C6,2*%
%TO.N,GND*%
X149860000Y-108680000D03*
D11*
%TO.P,C6,1*%
%TO.N,Net-(C6-Pad1)*%
X149860000Y-106680000D03*
%TD*%
D13*
%TO.P,C7,2*%
%TO.N,GND*%
X95250000Y-85010000D03*
D14*
%TO.P,C7,1*%
%TO.N,Net-(C7-Pad1)*%
X95250000Y-80010000D03*
%TD*%
%TO.P,C8,1*%
%TO.N,VBUS*%
X149860000Y-132080000D03*
D13*
%TO.P,C8,2*%
%TO.N,GND*%
X149860000Y-127080000D03*
%TD*%
D10*
%TO.P,C1A1,1*%
%TO.N,Net-(C1A1-Pad1)*%
X151765000Y-67810000D03*
%TO.P,C1A1,2*%
%TO.N,GND*%
X151765000Y-77310000D03*
%TD*%
%TO.P,C1B1,2*%
%TO.N,GND*%
X143510000Y-77310000D03*
%TO.P,C1B1,1*%
%TO.N,Net-(C1A1-Pad1)*%
X143510000Y-67810000D03*
%TD*%
%TO.P,C1C1,1*%
%TO.N,Net-(C1A1-Pad1)*%
X135890000Y-67810000D03*
%TO.P,C1C1,2*%
%TO.N,GND*%
X135890000Y-77310000D03*
%TD*%
D15*
%TO.P,J1,1*%
%TO.N,Net-(J1-Pad1)*%
X72850000Y-93980000D03*
D16*
%TO.P,J1,2*%
%TO.N,GND*%
X79350000Y-93980000D03*
%TD*%
%TO.P,J2,1*%
%TO.N,VBUS*%
%TA.AperFunction,ComponentPad*%
G36*
G01*
X98310000Y-146810000D02*
X98310000Y-145290000D01*
G75*
G02*
X98560000Y-145040000I250000J0D01*
G01*
X99560000Y-145040000D01*
G75*
G02*
X99810000Y-145290000I0J-250000D01*
G01*
X99810000Y-146810000D01*
G75*
G02*
X99560000Y-147060000I-250000J0D01*
G01*
X98560000Y-147060000D01*
G75*
G02*
X98310000Y-146810000I0J250000D01*
G01*
G37*
%TD.AperFunction*%
D17*
%TO.P,J2,2*%
%TO.N,GND*%
X102060000Y-146050000D03*
%TO.P,J2,3*%
%TO.N,Earth_Protective*%
X105060000Y-146050000D03*
%TO.P,J2,4*%
%TO.N,Net-(J2-Pad4)*%
X108060000Y-146050000D03*
%TO.P,J2,5*%
%TO.N,Net-(J2-Pad5)*%
X111060000Y-146050000D03*
%TO.P,J2,6*%
%TO.N,Net-(J2-Pad6)*%
X114060000Y-146050000D03*
%TD*%
D16*
%TO.P,J3,2*%
%TO.N,GND*%
X212750000Y-92710000D03*
D15*
%TO.P,J3,1*%
%TO.N,Net-(C4-Pad1)*%
X219250000Y-92710000D03*
%TD*%
D18*
%TO.P,R1,1*%
%TO.N,GND*%
X73025000Y-102870000D03*
D19*
%TO.P,R1,2*%
%TO.N,Net-(J1-Pad1)*%
X88265000Y-102870000D03*
%TD*%
D18*
%TO.P,R2,1*%
%TO.N,Net-(R2-Pad1)*%
X111125000Y-102870000D03*
D19*
%TO.P,R2,2*%
%TO.N,Net-(J1-Pad1)*%
X95885000Y-102870000D03*
%TD*%
%TO.P,R3,2*%
%TO.N,Net-(C5-Pad1)*%
X111125000Y-113030000D03*
D18*
%TO.P,R3,1*%
%TO.N,GND*%
X95885000Y-113030000D03*
%TD*%
D19*
%TO.P,R4,2*%
%TO.N,Net-(C7-Pad1)*%
X106680000Y-73660000D03*
D18*
%TO.P,R4,1*%
%TO.N,Net-(R4-Pad1)*%
X106680000Y-93980000D03*
%TD*%
D20*
%TO.P,R5,2*%
%TO.N,Net-(R4-Pad1)*%
X114935000Y-91440000D03*
D12*
%TO.P,R5,1*%
%TO.N,Net-(C2-Pad1)*%
X114935000Y-81280000D03*
%TD*%
D20*
%TO.P,R7,2*%
%TO.N,Net-(C3-Pad1)*%
X160020000Y-94615000D03*
D12*
%TO.P,R7,1*%
%TO.N,GND*%
X149860000Y-94615000D03*
%TD*%
D18*
%TO.P,R8,1*%
%TO.N,Net-(R8-Pad1)*%
X147320000Y-87630000D03*
D19*
%TO.P,R8,2*%
%TO.N,Net-(C3-Pad1)*%
X162560000Y-87630000D03*
%TD*%
D18*
%TO.P,R9,1*%
%TO.N,Net-(C4-Pad2)*%
X137795000Y-121285000D03*
D19*
%TO.P,R9,2*%
%TO.N,VBUS*%
X137795000Y-141605000D03*
%TD*%
%TO.P,R10,2*%
%TO.N,Net-(C6-Pad1)*%
X158750000Y-100330000D03*
D18*
%TO.P,R10,1*%
%TO.N,GND*%
X158750000Y-115570000D03*
%TD*%
D12*
%TO.P,R11,1*%
%TO.N,GND*%
X185420000Y-111125000D03*
D20*
%TO.P,R11,2*%
%TO.N,Net-(C4-Pad1)*%
X195580000Y-111125000D03*
%TD*%
%TO.P,R12,2*%
%TO.N,Net-(J2-Pad5)*%
X111760000Y-133350000D03*
D12*
%TO.P,R12,1*%
%TO.N,GND*%
X101600000Y-133350000D03*
%TD*%
D19*
%TO.P,R13,2*%
%TO.N,Net-(C7-Pad1)*%
X95250000Y-71120000D03*
D18*
%TO.P,R13,1*%
%TO.N,VBUS*%
X95250000Y-55880000D03*
%TD*%
D12*
%TO.P,R6A1,1*%
%TO.N,Net-(C1A1-Pad1)*%
X120650000Y-76835000D03*
D20*
%TO.P,R6A1,2*%
%TO.N,Net-(R6A1-Pad2)*%
X120650000Y-66675000D03*
%TD*%
D12*
%TO.P,R6B1,1*%
%TO.N,Net-(R6A1-Pad2)*%
X114935000Y-66675000D03*
D20*
%TO.P,R6B1,2*%
%TO.N,Net-(C2-Pad1)*%
X114935000Y-76835000D03*
%TD*%
D21*
%TO.P,U1,1*%
%TO.N,Net-(R4-Pad1)*%
X121045322Y-96698255D03*
%TO.P,U1,2*%
%TO.N,Net-(R2-Pad1)*%
X119040000Y-102870000D03*
%TO.P,U1,3*%
%TO.N,Net-(C5-Pad1)*%
X121045322Y-109041745D03*
%TO.P,U1,4*%
%TO.N,Net-(J2-Pad4)*%
X126295322Y-112856093D03*
%TO.P,U1,5*%
%TO.N,Net-(J2-Pad6)*%
X132784678Y-112856093D03*
%TO.P,U1,6*%
%TO.N,Net-(C4-Pad2)*%
X138034678Y-109041745D03*
%TO.P,U1,7*%
%TO.N,Net-(R8-Pad1)*%
X140040000Y-102870000D03*
%TO.P,U1,8*%
%TO.N,Net-(C6-Pad1)*%
X138034678Y-96698255D03*
%TO.P,U1,9*%
%TO.N,GND*%
X132784678Y-92883907D03*
D13*
%TO.P,U1,10*%
%TO.N,Net-(JP1-Pad2)*%
X129540000Y-88620000D03*
%TD*%
D22*
%TO.P,H1,1*%
%TO.N,Earth_Protective*%
X74930000Y-41910000D03*
%TD*%
%TO.P,H2,1*%
%TO.N,Earth_Protective*%
X217170000Y-41910000D03*
%TD*%
%TO.P,H3,1*%
%TO.N,Earth_Protective*%
X74930000Y-147320000D03*
%TD*%
%TO.P,H4,1*%
%TO.N,Earth_Protective*%
X217170000Y-147320000D03*
%TD*%
%TO.P,H5,1*%
%TO.N,GND*%
X74930000Y-72390000D03*
%TD*%
D23*
%TO.P,JP1,1*%
%TO.N,Earth_Protective*%
X127000000Y-102870000D03*
D24*
%TO.P,JP1,2*%
%TO.N,Net-(JP1-Pad2)*%
X129540000Y-102870000D03*
%TO.P,JP1,3*%
%TO.N,GND*%
X132080000Y-102870000D03*
%TD*%
D25*
%TO.N,GND*%
X102775000Y-121920000D02*
X102775000Y-132175000D01*
X102775000Y-132175000D02*
X101600000Y-133350000D01*
X149860000Y-108680000D02*
X151860000Y-108680000D01*
X151860000Y-108680000D02*
X158750000Y-115570000D01*
X95885000Y-113030000D02*
X95885000Y-114935000D01*
X95885000Y-114935000D02*
X102870000Y-121920000D01*
D26*
%TO.N,Earth_Protective*%
X74930000Y-41910000D02*
X217170000Y-41910000D01*
X80304011Y-147320000D02*
X83889001Y-150904990D01*
X74930000Y-147320000D02*
X80304011Y-147320000D01*
X165100000Y-150904990D02*
X213585010Y-150904990D01*
X213585010Y-150904990D02*
X217170000Y-147320000D01*
D25*
X105060000Y-150845000D02*
X105000010Y-150904990D01*
X105060000Y-146050000D02*
X105060000Y-150845000D01*
D26*
X105000010Y-150904990D02*
X165100000Y-150904990D01*
X83889001Y-150904990D02*
X105000010Y-150904990D01*
D25*
%TO.N,Net-(J2-Pad5)*%
X111760000Y-133350000D02*
X111760000Y-145415000D01*
X111760000Y-145415000D02*
X111125000Y-146050000D01*
%TD*%
D27*
%TO.N,GND*%
X85598000Y-76835000D02*
X85600440Y-76859776D01*
X85607667Y-76883601D01*
X85624752Y-76912970D01*
X90069752Y-82627970D01*
X90086890Y-82646030D01*
X90107221Y-82660398D01*
X90129965Y-82670525D01*
X90154248Y-82676019D01*
X90170000Y-82677000D01*
X103489366Y-82677000D01*
X108554198Y-83943208D01*
X108585000Y-83947000D01*
X118745000Y-83947000D01*
X118769776Y-83944560D01*
X118793601Y-83937333D01*
X118815557Y-83925597D01*
X118834803Y-83909803D01*
X118844862Y-83898463D01*
X123191615Y-78366231D01*
X126758374Y-78366231D01*
X126840727Y-78619289D01*
X127111418Y-78749086D01*
X127402230Y-78823580D01*
X127701988Y-78839908D01*
X127999171Y-78797443D01*
X128282359Y-78697816D01*
X128429273Y-78619289D01*
X128511626Y-78366231D01*
X135013374Y-78366231D01*
X135095727Y-78619289D01*
X135366418Y-78749086D01*
X135657230Y-78823580D01*
X135956988Y-78839908D01*
X136254171Y-78797443D01*
X136537359Y-78697816D01*
X136684273Y-78619289D01*
X136766626Y-78366231D01*
X142633374Y-78366231D01*
X142715727Y-78619289D01*
X142986418Y-78749086D01*
X143277230Y-78823580D01*
X143576988Y-78839908D01*
X143874171Y-78797443D01*
X144157359Y-78697816D01*
X144304273Y-78619289D01*
X144386626Y-78366231D01*
X150888374Y-78366231D01*
X150970727Y-78619289D01*
X151241418Y-78749086D01*
X151532230Y-78823580D01*
X151831988Y-78839908D01*
X152129171Y-78797443D01*
X152412359Y-78697816D01*
X152559273Y-78619289D01*
X152641626Y-78366231D01*
X151765000Y-77489605D01*
X150888374Y-78366231D01*
X144386626Y-78366231D01*
X143510000Y-77489605D01*
X142633374Y-78366231D01*
X136766626Y-78366231D01*
X135890000Y-77489605D01*
X135013374Y-78366231D01*
X128511626Y-78366231D01*
X127635000Y-77489605D01*
X126758374Y-78366231D01*
X123191615Y-78366231D01*
X123968878Y-77376988D01*
X126105092Y-77376988D01*
X126147557Y-77674171D01*
X126247184Y-77957359D01*
X126325711Y-78104273D01*
X126578769Y-78186626D01*
X127455395Y-77310000D01*
X127814605Y-77310000D01*
X128691231Y-78186626D01*
X128944289Y-78104273D01*
X129074086Y-77833582D01*
X129148580Y-77542770D01*
X129157610Y-77376988D01*
X134360092Y-77376988D01*
X134402557Y-77674171D01*
X134502184Y-77957359D01*
X134580711Y-78104273D01*
X134833769Y-78186626D01*
X135710395Y-77310000D01*
X136069605Y-77310000D01*
X136946231Y-78186626D01*
X137199289Y-78104273D01*
X137329086Y-77833582D01*
X137403580Y-77542770D01*
X137412610Y-77376988D01*
X141980092Y-77376988D01*
X142022557Y-77674171D01*
X142122184Y-77957359D01*
X142200711Y-78104273D01*
X142453769Y-78186626D01*
X143330395Y-77310000D01*
X143689605Y-77310000D01*
X144566231Y-78186626D01*
X144819289Y-78104273D01*
X144949086Y-77833582D01*
X145023580Y-77542770D01*
X145032610Y-77376988D01*
X150235092Y-77376988D01*
X150277557Y-77674171D01*
X150377184Y-77957359D01*
X150455711Y-78104273D01*
X150708769Y-78186626D01*
X151585395Y-77310000D01*
X151944605Y-77310000D01*
X152821231Y-78186626D01*
X153074289Y-78104273D01*
X153204086Y-77833582D01*
X153278580Y-77542770D01*
X153294908Y-77243012D01*
X153252443Y-76945829D01*
X153152816Y-76662641D01*
X153074289Y-76515727D01*
X152821231Y-76433374D01*
X151944605Y-77310000D01*
X151585395Y-77310000D01*
X150708769Y-76433374D01*
X150455711Y-76515727D01*
X150325914Y-76786418D01*
X150251420Y-77077230D01*
X150235092Y-77376988D01*
X145032610Y-77376988D01*
X145039908Y-77243012D01*
X144997443Y-76945829D01*
X144897816Y-76662641D01*
X144819289Y-76515727D01*
X144566231Y-76433374D01*
X143689605Y-77310000D01*
X143330395Y-77310000D01*
X142453769Y-76433374D01*
X142200711Y-76515727D01*
X142070914Y-76786418D01*
X141996420Y-77077230D01*
X141980092Y-77376988D01*
X137412610Y-77376988D01*
X137419908Y-77243012D01*
X137377443Y-76945829D01*
X137277816Y-76662641D01*
X137199289Y-76515727D01*
X136946231Y-76433374D01*
X136069605Y-77310000D01*
X135710395Y-77310000D01*
X134833769Y-76433374D01*
X134580711Y-76515727D01*
X134450914Y-76786418D01*
X134376420Y-77077230D01*
X134360092Y-77376988D01*
X129157610Y-77376988D01*
X129164908Y-77243012D01*
X129122443Y-76945829D01*
X129022816Y-76662641D01*
X128944289Y-76515727D01*
X128691231Y-76433374D01*
X127814605Y-77310000D01*
X127455395Y-77310000D01*
X126578769Y-76433374D01*
X126325711Y-76515727D01*
X126195914Y-76786418D01*
X126121420Y-77077230D01*
X126105092Y-77376988D01*
X123968878Y-77376988D01*
X124851407Y-76253769D01*
X126758374Y-76253769D01*
X127635000Y-77130395D01*
X128511626Y-76253769D01*
X135013374Y-76253769D01*
X135890000Y-77130395D01*
X136766626Y-76253769D01*
X142633374Y-76253769D01*
X143510000Y-77130395D01*
X144386626Y-76253769D01*
X150888374Y-76253769D01*
X151765000Y-77130395D01*
X152641626Y-76253769D01*
X152559273Y-76000711D01*
X152288582Y-75870914D01*
X151997770Y-75796420D01*
X151698012Y-75780092D01*
X151400829Y-75822557D01*
X151117641Y-75922184D01*
X150970727Y-76000711D01*
X150888374Y-76253769D01*
X144386626Y-76253769D01*
X144304273Y-76000711D01*
X144033582Y-75870914D01*
X143742770Y-75796420D01*
X143443012Y-75780092D01*
X143145829Y-75822557D01*
X142862641Y-75922184D01*
X142715727Y-76000711D01*
X142633374Y-76253769D01*
X136766626Y-76253769D01*
X136684273Y-76000711D01*
X136413582Y-75870914D01*
X136122770Y-75796420D01*
X135823012Y-75780092D01*
X135525829Y-75822557D01*
X135242641Y-75922184D01*
X135095727Y-76000711D01*
X135013374Y-76253769D01*
X128511626Y-76253769D01*
X128429273Y-76000711D01*
X128158582Y-75870914D01*
X127867770Y-75796420D01*
X127568012Y-75780092D01*
X127270829Y-75822557D01*
X126987641Y-75922184D01*
X126840727Y-76000711D01*
X126758374Y-76253769D01*
X124851407Y-76253769D01*
X125791726Y-75057000D01*
X154813000Y-75057000D01*
X154813000Y-103505000D01*
X154815440Y-103529776D01*
X154822667Y-103553601D01*
X154834403Y-103575557D01*
X154850197Y-103594803D01*
X154869443Y-103610597D01*
X154891399Y-103622333D01*
X154915224Y-103629560D01*
X154940000Y-103632000D01*
X160655000Y-103632000D01*
X160679776Y-103629560D01*
X160703601Y-103622333D01*
X160725557Y-103610597D01*
X160744803Y-103594803D01*
X160760089Y-103576311D01*
X162253938Y-101374849D01*
X170364000Y-101374849D01*
X170364000Y-101825151D01*
X170451850Y-102266802D01*
X170624173Y-102682827D01*
X170874348Y-103057240D01*
X171192760Y-103375652D01*
X171567173Y-103625827D01*
X171983198Y-103798150D01*
X172424849Y-103886000D01*
X172875151Y-103886000D01*
X173316802Y-103798150D01*
X173732827Y-103625827D01*
X174107240Y-103375652D01*
X174425652Y-103057240D01*
X174675827Y-102682827D01*
X174848150Y-102266802D01*
X174936000Y-101825151D01*
X174936000Y-101374849D01*
X193364000Y-101374849D01*
X193364000Y-101825151D01*
X193451850Y-102266802D01*
X193624173Y-102682827D01*
X193874348Y-103057240D01*
X194192760Y-103375652D01*
X194567173Y-103625827D01*
X194983198Y-103798150D01*
X195424849Y-103886000D01*
X195875151Y-103886000D01*
X196316802Y-103798150D01*
X196732827Y-103625827D01*
X197107240Y-103375652D01*
X197425652Y-103057240D01*
X197675827Y-102682827D01*
X197848150Y-102266802D01*
X197936000Y-101825151D01*
X197936000Y-101374849D01*
X197848150Y-100933198D01*
X197675827Y-100517173D01*
X197425652Y-100142760D01*
X197107240Y-99824348D01*
X196732827Y-99574173D01*
X196316802Y-99401850D01*
X195875151Y-99314000D01*
X195424849Y-99314000D01*
X194983198Y-99401850D01*
X194567173Y-99574173D01*
X194192760Y-99824348D01*
X193874348Y-100142760D01*
X193624173Y-100517173D01*
X193451850Y-100933198D01*
X193364000Y-101374849D01*
X174936000Y-101374849D01*
X174848150Y-100933198D01*
X174675827Y-100517173D01*
X174425652Y-100142760D01*
X174107240Y-99824348D01*
X173732827Y-99574173D01*
X173316802Y-99401850D01*
X172875151Y-99314000D01*
X172424849Y-99314000D01*
X171983198Y-99401850D01*
X171567173Y-99574173D01*
X171192760Y-99824348D01*
X170874348Y-100142760D01*
X170624173Y-100517173D01*
X170451850Y-100933198D01*
X170364000Y-101374849D01*
X162253938Y-101374849D01*
X166879996Y-94557499D01*
X211082106Y-94557499D01*
X211298228Y-94924258D01*
X211758105Y-95164938D01*
X212256098Y-95311275D01*
X212773071Y-95357648D01*
X213289159Y-95302273D01*
X213784526Y-95147279D01*
X214201772Y-94924258D01*
X214417894Y-94557499D01*
X212750000Y-92889605D01*
X211082106Y-94557499D01*
X166879996Y-94557499D01*
X168118001Y-92733071D01*
X210102352Y-92733071D01*
X210157727Y-93249159D01*
X210312721Y-93744526D01*
X210535742Y-94161772D01*
X210902501Y-94377894D01*
X212570395Y-92710000D01*
X212929605Y-92710000D01*
X214597499Y-94377894D01*
X214964258Y-94161772D01*
X215204938Y-93701895D01*
X215351275Y-93203902D01*
X215397648Y-92686929D01*
X215342273Y-92170841D01*
X215187279Y-91675474D01*
X214964258Y-91258228D01*
X214597499Y-91042106D01*
X212929605Y-92710000D01*
X212570395Y-92710000D01*
X210902501Y-91042106D01*
X210535742Y-91258228D01*
X210295062Y-91718105D01*
X210148725Y-92216098D01*
X210102352Y-92733071D01*
X168118001Y-92733071D01*
X169387316Y-90862501D01*
X211082106Y-90862501D01*
X212750000Y-92530395D01*
X214417894Y-90862501D01*
X214201772Y-90495742D01*
X213741895Y-90255062D01*
X213243902Y-90108725D01*
X212726929Y-90062352D01*
X212210841Y-90117727D01*
X211715474Y-90272721D01*
X211298228Y-90495742D01*
X211082106Y-90862501D01*
X169387316Y-90862501D01*
X172787300Y-85852000D01*
X217043000Y-85852000D01*
X217043000Y-90820023D01*
X216999753Y-90863270D01*
X216682712Y-91337756D01*
X216464330Y-91864976D01*
X216353000Y-92424670D01*
X216353000Y-92995330D01*
X216464330Y-93555024D01*
X216682712Y-94082244D01*
X216999753Y-94556730D01*
X217043000Y-94599977D01*
X217043000Y-112299344D01*
X157462124Y-129413000D01*
X144907000Y-129413000D01*
X144907000Y-128215413D01*
X148904192Y-128215413D01*
X148999956Y-128479814D01*
X149289571Y-128620704D01*
X149601108Y-128702384D01*
X149922595Y-128721718D01*
X150241675Y-128677961D01*
X150546088Y-128572795D01*
X150720044Y-128479814D01*
X150815808Y-128215413D01*
X149860000Y-127259605D01*
X148904192Y-128215413D01*
X144907000Y-128215413D01*
X144907000Y-127142595D01*
X148218282Y-127142595D01*
X148262039Y-127461675D01*
X148367205Y-127766088D01*
X148460186Y-127940044D01*
X148724587Y-128035808D01*
X149680395Y-127080000D01*
X150039605Y-127080000D01*
X150995413Y-128035808D01*
X151259814Y-127940044D01*
X151400704Y-127650429D01*
X151482384Y-127338892D01*
X151501718Y-127017405D01*
X151457961Y-126698325D01*
X151352795Y-126393912D01*
X151259814Y-126219956D01*
X150995413Y-126124192D01*
X150039605Y-127080000D01*
X149680395Y-127080000D01*
X148724587Y-126124192D01*
X148460186Y-126219956D01*
X148319296Y-126509571D01*
X148237616Y-126821108D01*
X148218282Y-127142595D01*
X144907000Y-127142595D01*
X144907000Y-126365000D01*
X144904560Y-126340224D01*
X144897333Y-126316399D01*
X144885597Y-126294443D01*
X144869803Y-126275197D01*
X144850557Y-126259403D01*
X144828601Y-126247667D01*
X144804776Y-126240440D01*
X144780000Y-126238000D01*
X71272000Y-126238000D01*
X71272000Y-125944587D01*
X148904192Y-125944587D01*
X149860000Y-126900395D01*
X150815808Y-125944587D01*
X150720044Y-125680186D01*
X150430429Y-125539296D01*
X150118892Y-125457616D01*
X149797405Y-125438282D01*
X149478325Y-125482039D01*
X149173912Y-125587205D01*
X148999956Y-125680186D01*
X148904192Y-125944587D01*
X71272000Y-125944587D01*
X71272000Y-121990512D01*
X101334783Y-121990512D01*
X101376213Y-122270130D01*
X101471397Y-122536292D01*
X101538329Y-122661514D01*
X101782298Y-122733097D01*
X102571241Y-121944154D01*
X102571241Y-122303364D01*
X101961903Y-122912702D01*
X102033486Y-123156671D01*
X102288996Y-123277571D01*
X102563184Y-123346300D01*
X102730122Y-123354529D01*
X102807817Y-123499887D01*
X102982392Y-123712608D01*
X103195113Y-123887183D01*
X103437805Y-124016904D01*
X103701140Y-124096786D01*
X103975000Y-124123759D01*
X105575000Y-124123759D01*
X105848860Y-124096786D01*
X106112195Y-124016904D01*
X106354887Y-123887183D01*
X106567608Y-123712608D01*
X106742183Y-123499887D01*
X106871904Y-123257195D01*
X106951786Y-122993860D01*
X106978759Y-122720000D01*
X106978759Y-121120000D01*
X106969818Y-121029218D01*
X135198000Y-121029218D01*
X135198000Y-121540782D01*
X135297801Y-122042517D01*
X135493568Y-122515141D01*
X135777778Y-122940491D01*
X136139509Y-123302222D01*
X136564859Y-123586432D01*
X137037483Y-123782199D01*
X137539218Y-123882000D01*
X138050782Y-123882000D01*
X138552517Y-123782199D01*
X139025141Y-123586432D01*
X139450491Y-123302222D01*
X139812222Y-122940491D01*
X140096432Y-122515141D01*
X140292199Y-122042517D01*
X140392000Y-121540782D01*
X140392000Y-121029218D01*
X140292199Y-120527483D01*
X140096432Y-120054859D01*
X139812222Y-119629509D01*
X139450491Y-119267778D01*
X139025141Y-118983568D01*
X138552517Y-118787801D01*
X138050782Y-118688000D01*
X137539218Y-118688000D01*
X137037483Y-118787801D01*
X136564859Y-118983568D01*
X136139509Y-119267778D01*
X135777778Y-119629509D01*
X135493568Y-120054859D01*
X135297801Y-120527483D01*
X135198000Y-121029218D01*
X106969818Y-121029218D01*
X106951786Y-120846140D01*
X106871904Y-120582805D01*
X106742183Y-120340113D01*
X106567608Y-120127392D01*
X106354887Y-119952817D01*
X106112195Y-119823096D01*
X105848860Y-119743214D01*
X105575000Y-119716241D01*
X103975000Y-119716241D01*
X103701140Y-119743214D01*
X103437805Y-119823096D01*
X103195113Y-119952817D01*
X102982392Y-120127392D01*
X102807817Y-120340113D01*
X102732426Y-120481160D01*
X102704488Y-120479783D01*
X102424870Y-120521213D01*
X102158708Y-120616397D01*
X102033486Y-120683329D01*
X101961903Y-120927298D01*
X102571241Y-121536636D01*
X102571241Y-121895846D01*
X101782298Y-121106903D01*
X101538329Y-121178486D01*
X101417429Y-121433996D01*
X101348700Y-121708184D01*
X101334783Y-121990512D01*
X71272000Y-121990512D01*
X71272000Y-116847980D01*
X157651626Y-116847980D01*
X157771514Y-117132836D01*
X158095210Y-117293699D01*
X158444069Y-117388322D01*
X158804684Y-117413067D01*
X159163198Y-117366985D01*
X159505833Y-117251846D01*
X159728486Y-117132836D01*
X159848374Y-116847980D01*
X158750000Y-115749605D01*
X157651626Y-116847980D01*
X71272000Y-116847980D01*
X71272000Y-114307980D01*
X94786626Y-114307980D01*
X94906514Y-114592836D01*
X95230210Y-114753699D01*
X95579069Y-114848322D01*
X95939684Y-114873067D01*
X96298198Y-114826985D01*
X96640833Y-114711846D01*
X96863486Y-114592836D01*
X96983374Y-114307980D01*
X95885000Y-113209605D01*
X94786626Y-114307980D01*
X71272000Y-114307980D01*
X71272000Y-113084684D01*
X94041933Y-113084684D01*
X94088015Y-113443198D01*
X94203154Y-113785833D01*
X94322164Y-114008486D01*
X94607020Y-114128374D01*
X95705395Y-113030000D01*
X96064605Y-113030000D01*
X97162980Y-114128374D01*
X97447836Y-114008486D01*
X97608699Y-113684790D01*
X97703322Y-113335931D01*
X97728067Y-112975316D01*
X97702219Y-112774218D01*
X108528000Y-112774218D01*
X108528000Y-113285782D01*
X108627801Y-113787517D01*
X108823568Y-114260141D01*
X109107778Y-114685491D01*
X109469509Y-115047222D01*
X109894859Y-115331432D01*
X110367483Y-115527199D01*
X110869218Y-115627000D01*
X111380782Y-115627000D01*
X111882517Y-115527199D01*
X112355141Y-115331432D01*
X112780491Y-115047222D01*
X113142222Y-114685491D01*
X113426432Y-114260141D01*
X113622199Y-113787517D01*
X113722000Y-113285782D01*
X113722000Y-112774218D01*
X113683490Y-112580613D01*
X123498322Y-112580613D01*
X123498322Y-113131573D01*
X123605810Y-113671948D01*
X123816653Y-114180969D01*
X124122751Y-114639076D01*
X124512339Y-115028664D01*
X124970446Y-115334762D01*
X125479467Y-115545605D01*
X126019842Y-115653093D01*
X126570802Y-115653093D01*
X127111177Y-115545605D01*
X127620198Y-115334762D01*
X128078305Y-115028664D01*
X128467893Y-114639076D01*
X128773991Y-114180969D01*
X128984834Y-113671948D01*
X129092322Y-113131573D01*
X129092322Y-112580613D01*
X129987678Y-112580613D01*
X129987678Y-113131573D01*
X130095166Y-113671948D01*
X130306009Y-114180969D01*
X130612107Y-114639076D01*
X131001695Y-115028664D01*
X131459802Y-115334762D01*
X131968823Y-115545605D01*
X132509198Y-115653093D01*
X133060158Y-115653093D01*
X133202978Y-115624684D01*
X156906933Y-115624684D01*
X156953015Y-115983198D01*
X157068154Y-116325833D01*
X157187164Y-116548486D01*
X157472020Y-116668374D01*
X158570395Y-115570000D01*
X158929605Y-115570000D01*
X160027980Y-116668374D01*
X160312836Y-116548486D01*
X160473699Y-116224790D01*
X160568322Y-115875931D01*
X160593067Y-115515316D01*
X160546985Y-115156802D01*
X160431846Y-114814167D01*
X160312836Y-114591514D01*
X160027980Y-114471626D01*
X158929605Y-115570000D01*
X158570395Y-115570000D01*
X157472020Y-114471626D01*
X157187164Y-114591514D01*
X157026301Y-114915210D01*
X156931678Y-115264069D01*
X156906933Y-115624684D01*
X133202978Y-115624684D01*
X133600533Y-115545605D01*
X134109554Y-115334762D01*
X134567661Y-115028664D01*
X134957249Y-114639076D01*
X135189144Y-114292020D01*
X157651626Y-114292020D01*
X158750000Y-115390395D01*
X159848374Y-114292020D01*
X159728486Y-114007164D01*
X159404790Y-113846301D01*
X159055931Y-113751678D01*
X158695316Y-113726933D01*
X158336802Y-113773015D01*
X157994167Y-113888154D01*
X157771514Y-114007164D01*
X157651626Y-114292020D01*
X135189144Y-114292020D01*
X135263347Y-114180969D01*
X135474190Y-113671948D01*
X135581678Y-113131573D01*
X135581678Y-112580613D01*
X135489599Y-112117702D01*
X184606903Y-112117702D01*
X184678486Y-112361671D01*
X184933996Y-112482571D01*
X185208184Y-112551300D01*
X185490512Y-112565217D01*
X185770130Y-112523787D01*
X186036292Y-112428603D01*
X186161514Y-112361671D01*
X186233097Y-112117702D01*
X185420000Y-111304605D01*
X184606903Y-112117702D01*
X135489599Y-112117702D01*
X135474190Y-112040238D01*
X135263347Y-111531217D01*
X134957249Y-111073110D01*
X134567661Y-110683522D01*
X134109554Y-110377424D01*
X133600533Y-110166581D01*
X133060158Y-110059093D01*
X132509198Y-110059093D01*
X131968823Y-110166581D01*
X131459802Y-110377424D01*
X131001695Y-110683522D01*
X130612107Y-111073110D01*
X130306009Y-111531217D01*
X130095166Y-112040238D01*
X129987678Y-112580613D01*
X129092322Y-112580613D01*
X128984834Y-112040238D01*
X128773991Y-111531217D01*
X128467893Y-111073110D01*
X128078305Y-110683522D01*
X127620198Y-110377424D01*
X127111177Y-110166581D01*
X126570802Y-110059093D01*
X126019842Y-110059093D01*
X125479467Y-110166581D01*
X124970446Y-110377424D01*
X124512339Y-110683522D01*
X124122751Y-111073110D01*
X123816653Y-111531217D01*
X123605810Y-112040238D01*
X123498322Y-112580613D01*
X113683490Y-112580613D01*
X113622199Y-112272483D01*
X113426432Y-111799859D01*
X113142222Y-111374509D01*
X112780491Y-111012778D01*
X112355141Y-110728568D01*
X111882517Y-110532801D01*
X111380782Y-110433000D01*
X110869218Y-110433000D01*
X110367483Y-110532801D01*
X109894859Y-110728568D01*
X109469509Y-111012778D01*
X109107778Y-111374509D01*
X108823568Y-111799859D01*
X108627801Y-112272483D01*
X108528000Y-112774218D01*
X97702219Y-112774218D01*
X97681985Y-112616802D01*
X97566846Y-112274167D01*
X97447836Y-112051514D01*
X97162980Y-111931626D01*
X96064605Y-113030000D01*
X95705395Y-113030000D01*
X94607020Y-111931626D01*
X94322164Y-112051514D01*
X94161301Y-112375210D01*
X94066678Y-112724069D01*
X94041933Y-113084684D01*
X71272000Y-113084684D01*
X71272000Y-111752020D01*
X94786626Y-111752020D01*
X95885000Y-112850395D01*
X96983374Y-111752020D01*
X96863486Y-111467164D01*
X96539790Y-111306301D01*
X96190931Y-111211678D01*
X95830316Y-111186933D01*
X95471802Y-111233015D01*
X95129167Y-111348154D01*
X94906514Y-111467164D01*
X94786626Y-111752020D01*
X71272000Y-111752020D01*
X71272000Y-108766265D01*
X118248322Y-108766265D01*
X118248322Y-109317225D01*
X118355810Y-109857600D01*
X118566653Y-110366621D01*
X118872751Y-110824728D01*
X119262339Y-111214316D01*
X119720446Y-111520414D01*
X120229467Y-111731257D01*
X120769842Y-111838745D01*
X121320802Y-111838745D01*
X121861177Y-111731257D01*
X122370198Y-111520414D01*
X122828305Y-111214316D01*
X123217893Y-110824728D01*
X123523991Y-110366621D01*
X123734834Y-109857600D01*
X123842322Y-109317225D01*
X123842322Y-108766265D01*
X135237678Y-108766265D01*
X135237678Y-109317225D01*
X135345166Y-109857600D01*
X135556009Y-110366621D01*
X135862107Y-110824728D01*
X136251695Y-111214316D01*
X136709802Y-111520414D01*
X137218823Y-111731257D01*
X137759198Y-111838745D01*
X138310158Y-111838745D01*
X138850533Y-111731257D01*
X139359554Y-111520414D01*
X139817661Y-111214316D01*
X139836465Y-111195512D01*
X183979783Y-111195512D01*
X184021213Y-111475130D01*
X184116397Y-111741292D01*
X184183329Y-111866514D01*
X184427298Y-111938097D01*
X185240395Y-111125000D01*
X185599605Y-111125000D01*
X186412702Y-111938097D01*
X186656671Y-111866514D01*
X186777571Y-111611004D01*
X186846300Y-111336816D01*
X186860217Y-111054488D01*
X186838604Y-110908614D01*
X193383000Y-110908614D01*
X193383000Y-111341386D01*
X193467430Y-111765841D01*
X193633044Y-112165670D01*
X193873479Y-112525506D01*
X194179494Y-112831521D01*
X194539330Y-113071956D01*
X194939159Y-113237570D01*
X195363614Y-113322000D01*
X195796386Y-113322000D01*
X196220841Y-113237570D01*
X196620670Y-113071956D01*
X196980506Y-112831521D01*
X197286521Y-112525506D01*
X197526956Y-112165670D01*
X197692570Y-111765841D01*
X197777000Y-111341386D01*
X197777000Y-110908614D01*
X197692570Y-110484159D01*
X197526956Y-110084330D01*
X197286521Y-109724494D01*
X196980506Y-109418479D01*
X196620670Y-109178044D01*
X196220841Y-109012430D01*
X195796386Y-108928000D01*
X195363614Y-108928000D01*
X194939159Y-109012430D01*
X194539330Y-109178044D01*
X194179494Y-109418479D01*
X193873479Y-109724494D01*
X193633044Y-110084330D01*
X193467430Y-110484159D01*
X193383000Y-110908614D01*
X186838604Y-110908614D01*
X186818787Y-110774870D01*
X186723603Y-110508708D01*
X186656671Y-110383486D01*
X186412702Y-110311903D01*
X185599605Y-111125000D01*
X185240395Y-111125000D01*
X184427298Y-110311903D01*
X184183329Y-110383486D01*
X184062429Y-110638996D01*
X183993700Y-110913184D01*
X183979783Y-111195512D01*
X139836465Y-111195512D01*
X140207249Y-110824728D01*
X140513347Y-110366621D01*
X140610406Y-110132298D01*
X184606903Y-110132298D01*
X185420000Y-110945395D01*
X186233097Y-110132298D01*
X186161514Y-109888329D01*
X185906004Y-109767429D01*
X185631816Y-109698700D01*
X185349488Y-109684783D01*
X185069870Y-109726213D01*
X184803708Y-109821397D01*
X184678486Y-109888329D01*
X184606903Y-110132298D01*
X140610406Y-110132298D01*
X140724190Y-109857600D01*
X140831678Y-109317225D01*
X140831678Y-108766265D01*
X140724190Y-108225890D01*
X140513347Y-107716869D01*
X140207249Y-107258762D01*
X139817661Y-106869174D01*
X139359554Y-106563076D01*
X138850533Y-106352233D01*
X138310158Y-106244745D01*
X137759198Y-106244745D01*
X137218823Y-106352233D01*
X136709802Y-106563076D01*
X136251695Y-106869174D01*
X135862107Y-107258762D01*
X135556009Y-107716869D01*
X135345166Y-108225890D01*
X135237678Y-108766265D01*
X123842322Y-108766265D01*
X123734834Y-108225890D01*
X123523991Y-107716869D01*
X123217893Y-107258762D01*
X122828305Y-106869174D01*
X122370198Y-106563076D01*
X121861177Y-106352233D01*
X121320802Y-106244745D01*
X120769842Y-106244745D01*
X120229467Y-106352233D01*
X119720446Y-106563076D01*
X119262339Y-106869174D01*
X118872751Y-107258762D01*
X118566653Y-107716869D01*
X118355810Y-108225890D01*
X118248322Y-108766265D01*
X71272000Y-108766265D01*
X71272000Y-105880000D01*
X147656241Y-105880000D01*
X147656241Y-107480000D01*
X147683214Y-107753860D01*
X147763096Y-108017195D01*
X147892817Y-108259887D01*
X148067392Y-108472608D01*
X148280113Y-108647183D01*
X148421160Y-108722574D01*
X148419783Y-108750512D01*
X148461213Y-109030130D01*
X148556397Y-109296292D01*
X148623329Y-109421514D01*
X148867298Y-109493097D01*
X149476636Y-108883759D01*
X149835846Y-108883759D01*
X149046903Y-109672702D01*
X149118486Y-109916671D01*
X149373996Y-110037571D01*
X149648184Y-110106300D01*
X149930512Y-110120217D01*
X150210130Y-110078787D01*
X150476292Y-109983603D01*
X150601514Y-109916671D01*
X150673097Y-109672702D01*
X149884154Y-108883759D01*
X150243364Y-108883759D01*
X150852702Y-109493097D01*
X151096671Y-109421514D01*
X151217571Y-109166004D01*
X151286300Y-108891816D01*
X151294529Y-108724878D01*
X151439887Y-108647183D01*
X151652608Y-108472608D01*
X151827183Y-108259887D01*
X151956904Y-108017195D01*
X152036786Y-107753860D01*
X152063759Y-107480000D01*
X152063759Y-105880000D01*
X152036786Y-105606140D01*
X151956904Y-105342805D01*
X151827183Y-105100113D01*
X151652608Y-104887392D01*
X151439887Y-104712817D01*
X151197195Y-104583096D01*
X150933860Y-104503214D01*
X150660000Y-104476241D01*
X149060000Y-104476241D01*
X148786140Y-104503214D01*
X148522805Y-104583096D01*
X148280113Y-104712817D01*
X148067392Y-104887392D01*
X147892817Y-105100113D01*
X147763096Y-105342805D01*
X147683214Y-105606140D01*
X147656241Y-105880000D01*
X71272000Y-105880000D01*
X71272000Y-104147980D01*
X71926626Y-104147980D01*
X72046514Y-104432836D01*
X72370210Y-104593699D01*
X72719069Y-104688322D01*
X73079684Y-104713067D01*
X73438198Y-104666985D01*
X73780833Y-104551846D01*
X74003486Y-104432836D01*
X74123374Y-104147980D01*
X73025000Y-103049605D01*
X71926626Y-104147980D01*
X71272000Y-104147980D01*
X71272000Y-103414090D01*
X71343154Y-103625833D01*
X71462164Y-103848486D01*
X71747020Y-103968374D01*
X72845395Y-102870000D01*
X73204605Y-102870000D01*
X74302980Y-103968374D01*
X74587836Y-103848486D01*
X74748699Y-103524790D01*
X74843322Y-103175931D01*
X74868067Y-102815316D01*
X74842219Y-102614218D01*
X85668000Y-102614218D01*
X85668000Y-103125782D01*
X85767801Y-103627517D01*
X85963568Y-104100141D01*
X86247778Y-104525491D01*
X86609509Y-104887222D01*
X87034859Y-105171432D01*
X87507483Y-105367199D01*
X88009218Y-105467000D01*
X88520782Y-105467000D01*
X89022517Y-105367199D01*
X89495141Y-105171432D01*
X89920491Y-104887222D01*
X90282222Y-104525491D01*
X90566432Y-104100141D01*
X90762199Y-103627517D01*
X90862000Y-103125782D01*
X90862000Y-102614218D01*
X93288000Y-102614218D01*
X93288000Y-103125782D01*
X93387801Y-103627517D01*
X93583568Y-104100141D01*
X93867778Y-104525491D01*
X94229509Y-104887222D01*
X94654859Y-105171432D01*
X95127483Y-105367199D01*
X95629218Y-105467000D01*
X96140782Y-105467000D01*
X96642517Y-105367199D01*
X97115141Y-105171432D01*
X97540491Y-104887222D01*
X97902222Y-104525491D01*
X98186432Y-104100141D01*
X98382199Y-103627517D01*
X98482000Y-103125782D01*
X98482000Y-102614218D01*
X108528000Y-102614218D01*
X108528000Y-103125782D01*
X108627801Y-103627517D01*
X108823568Y-104100141D01*
X109107778Y-104525491D01*
X109469509Y-104887222D01*
X109894859Y-105171432D01*
X110367483Y-105367199D01*
X110869218Y-105467000D01*
X111380782Y-105467000D01*
X111882517Y-105367199D01*
X112355141Y-105171432D01*
X112780491Y-104887222D01*
X113142222Y-104525491D01*
X113426432Y-104100141D01*
X113622199Y-103627517D01*
X113722000Y-103125782D01*
X113722000Y-102614218D01*
X113718082Y-102594520D01*
X116243000Y-102594520D01*
X116243000Y-103145480D01*
X116350488Y-103685855D01*
X116561331Y-104194876D01*
X116867429Y-104652983D01*
X117257017Y-105042571D01*
X117715124Y-105348669D01*
X118224145Y-105559512D01*
X118764520Y-105667000D01*
X119315480Y-105667000D01*
X119855855Y-105559512D01*
X120364876Y-105348669D01*
X120822983Y-105042571D01*
X121212571Y-104652983D01*
X121518669Y-104194876D01*
X121729512Y-103685855D01*
X121837000Y-103145480D01*
X121837000Y-102594520D01*
X121729512Y-102054145D01*
X121715369Y-102020000D01*
X124746241Y-102020000D01*
X124746241Y-103720000D01*
X124773214Y-103993860D01*
X124853096Y-104257195D01*
X124982817Y-104499887D01*
X125157392Y-104712608D01*
X125370113Y-104887183D01*
X125612805Y-105016904D01*
X125876140Y-105096786D01*
X126150000Y-105123759D01*
X127850000Y-105123759D01*
X128123860Y-105096786D01*
X128387195Y-105016904D01*
X128589864Y-104908576D01*
X128884574Y-105030649D01*
X129318690Y-105117000D01*
X129761310Y-105117000D01*
X130195426Y-105030649D01*
X130604353Y-104861265D01*
X130972379Y-104615359D01*
X131285359Y-104302379D01*
X131373524Y-104170431D01*
X131575901Y-104266825D01*
X131723110Y-104311476D01*
X131953000Y-104190155D01*
X131953000Y-102997000D01*
X132207000Y-102997000D01*
X132207000Y-104190155D01*
X132436890Y-104311476D01*
X132584099Y-104266825D01*
X132846920Y-104141641D01*
X133080269Y-103967588D01*
X133275178Y-103751355D01*
X133424157Y-103501252D01*
X133521481Y-103226891D01*
X133400814Y-102997000D01*
X132207000Y-102997000D01*
X131953000Y-102997000D01*
X131933000Y-102997000D01*
X131933000Y-102743000D01*
X131953000Y-102743000D01*
X131953000Y-101549845D01*
X132207000Y-101549845D01*
X132207000Y-102743000D01*
X133400814Y-102743000D01*
X133478749Y-102594520D01*
X137243000Y-102594520D01*
X137243000Y-103145480D01*
X137350488Y-103685855D01*
X137561331Y-104194876D01*
X137867429Y-104652983D01*
X138257017Y-105042571D01*
X138715124Y-105348669D01*
X139224145Y-105559512D01*
X139764520Y-105667000D01*
X140315480Y-105667000D01*
X140855855Y-105559512D01*
X141364876Y-105348669D01*
X141822983Y-105042571D01*
X142212571Y-104652983D01*
X142518669Y-104194876D01*
X142729512Y-103685855D01*
X142837000Y-103145480D01*
X142837000Y-102594520D01*
X142729512Y-102054145D01*
X142518669Y-101545124D01*
X142212571Y-101087017D01*
X141822983Y-100697429D01*
X141364876Y-100391331D01*
X140855855Y-100180488D01*
X140315480Y-100073000D01*
X139764520Y-100073000D01*
X139224145Y-100180488D01*
X138715124Y-100391331D01*
X138257017Y-100697429D01*
X137867429Y-101087017D01*
X137561331Y-101545124D01*
X137350488Y-102054145D01*
X137243000Y-102594520D01*
X133478749Y-102594520D01*
X133521481Y-102513109D01*
X133424157Y-102238748D01*
X133275178Y-101988645D01*
X133080269Y-101772412D01*
X132846920Y-101598359D01*
X132584099Y-101473175D01*
X132436890Y-101428524D01*
X132207000Y-101549845D01*
X131953000Y-101549845D01*
X131723110Y-101428524D01*
X131575901Y-101473175D01*
X131373524Y-101569569D01*
X131285359Y-101437621D01*
X130972379Y-101124641D01*
X130604353Y-100878735D01*
X130195426Y-100709351D01*
X129761310Y-100623000D01*
X129318690Y-100623000D01*
X128884574Y-100709351D01*
X128589864Y-100831424D01*
X128387195Y-100723096D01*
X128123860Y-100643214D01*
X127850000Y-100616241D01*
X126150000Y-100616241D01*
X125876140Y-100643214D01*
X125612805Y-100723096D01*
X125370113Y-100852817D01*
X125157392Y-101027392D01*
X124982817Y-101240113D01*
X124853096Y-101482805D01*
X124773214Y-101746140D01*
X124746241Y-102020000D01*
X121715369Y-102020000D01*
X121518669Y-101545124D01*
X121212571Y-101087017D01*
X120822983Y-100697429D01*
X120364876Y-100391331D01*
X119855855Y-100180488D01*
X119315480Y-100073000D01*
X118764520Y-100073000D01*
X118224145Y-100180488D01*
X117715124Y-100391331D01*
X117257017Y-100697429D01*
X116867429Y-101087017D01*
X116561331Y-101545124D01*
X116350488Y-102054145D01*
X116243000Y-102594520D01*
X113718082Y-102594520D01*
X113622199Y-102112483D01*
X113426432Y-101639859D01*
X113142222Y-101214509D01*
X112780491Y-100852778D01*
X112355141Y-100568568D01*
X111882517Y-100372801D01*
X111380782Y-100273000D01*
X110869218Y-100273000D01*
X110367483Y-100372801D01*
X109894859Y-100568568D01*
X109469509Y-100852778D01*
X109107778Y-101214509D01*
X108823568Y-101639859D01*
X108627801Y-102112483D01*
X108528000Y-102614218D01*
X98482000Y-102614218D01*
X98382199Y-102112483D01*
X98186432Y-101639859D01*
X97902222Y-101214509D01*
X97540491Y-100852778D01*
X97115141Y-100568568D01*
X96642517Y-100372801D01*
X96140782Y-100273000D01*
X95629218Y-100273000D01*
X95127483Y-100372801D01*
X94654859Y-100568568D01*
X94229509Y-100852778D01*
X93867778Y-101214509D01*
X93583568Y-101639859D01*
X93387801Y-102112483D01*
X93288000Y-102614218D01*
X90862000Y-102614218D01*
X90762199Y-102112483D01*
X90566432Y-101639859D01*
X90282222Y-101214509D01*
X89920491Y-100852778D01*
X89495141Y-100568568D01*
X89022517Y-100372801D01*
X88520782Y-100273000D01*
X88009218Y-100273000D01*
X87507483Y-100372801D01*
X87034859Y-100568568D01*
X86609509Y-100852778D01*
X86247778Y-101214509D01*
X85963568Y-101639859D01*
X85767801Y-102112483D01*
X85668000Y-102614218D01*
X74842219Y-102614218D01*
X74821985Y-102456802D01*
X74706846Y-102114167D01*
X74587836Y-101891514D01*
X74302980Y-101771626D01*
X73204605Y-102870000D01*
X72845395Y-102870000D01*
X71747020Y-101771626D01*
X71462164Y-101891514D01*
X71301301Y-102215210D01*
X71272000Y-102323238D01*
X71272000Y-101592020D01*
X71926626Y-101592020D01*
X73025000Y-102690395D01*
X74123374Y-101592020D01*
X74003486Y-101307164D01*
X73679790Y-101146301D01*
X73330931Y-101051678D01*
X72970316Y-101026933D01*
X72611802Y-101073015D01*
X72269167Y-101188154D01*
X72046514Y-101307164D01*
X71926626Y-101592020D01*
X71272000Y-101592020D01*
X71272000Y-96409806D01*
X71477756Y-96547288D01*
X72004976Y-96765670D01*
X72564670Y-96877000D01*
X73135330Y-96877000D01*
X73695024Y-96765670D01*
X74222244Y-96547288D01*
X74696730Y-96230247D01*
X75099478Y-95827499D01*
X77682106Y-95827499D01*
X77898228Y-96194258D01*
X78358105Y-96434938D01*
X78856098Y-96581275D01*
X79373071Y-96627648D01*
X79889159Y-96572273D01*
X80384526Y-96417279D01*
X80801772Y-96194258D01*
X81017894Y-95827499D01*
X79350000Y-94159605D01*
X77682106Y-95827499D01*
X75099478Y-95827499D01*
X75100247Y-95826730D01*
X75417288Y-95352244D01*
X75635670Y-94825024D01*
X75747000Y-94265330D01*
X75747000Y-94003071D01*
X76702352Y-94003071D01*
X76757727Y-94519159D01*
X76912721Y-95014526D01*
X77135742Y-95431772D01*
X77502501Y-95647894D01*
X79170395Y-93980000D01*
X79529605Y-93980000D01*
X81197499Y-95647894D01*
X81564258Y-95431772D01*
X81804938Y-94971895D01*
X81951275Y-94473902D01*
X81997648Y-93956929D01*
X81972679Y-93724218D01*
X104083000Y-93724218D01*
X104083000Y-94235782D01*
X104182801Y-94737517D01*
X104378568Y-95210141D01*
X104662778Y-95635491D01*
X105024509Y-95997222D01*
X105449859Y-96281432D01*
X105922483Y-96477199D01*
X106424218Y-96577000D01*
X106935782Y-96577000D01*
X107437517Y-96477199D01*
X107568908Y-96422775D01*
X118248322Y-96422775D01*
X118248322Y-96973735D01*
X118355810Y-97514110D01*
X118566653Y-98023131D01*
X118872751Y-98481238D01*
X119262339Y-98870826D01*
X119720446Y-99176924D01*
X120229467Y-99387767D01*
X120769842Y-99495255D01*
X121320802Y-99495255D01*
X121861177Y-99387767D01*
X122370198Y-99176924D01*
X122828305Y-98870826D01*
X123217893Y-98481238D01*
X123523991Y-98023131D01*
X123734834Y-97514110D01*
X123842322Y-96973735D01*
X123842322Y-96422775D01*
X135237678Y-96422775D01*
X135237678Y-96973735D01*
X135345166Y-97514110D01*
X135556009Y-98023131D01*
X135862107Y-98481238D01*
X136251695Y-98870826D01*
X136709802Y-99176924D01*
X137218823Y-99387767D01*
X137759198Y-99495255D01*
X138310158Y-99495255D01*
X138850533Y-99387767D01*
X139359554Y-99176924D01*
X139817661Y-98870826D01*
X140207249Y-98481238D01*
X140513347Y-98023131D01*
X140724190Y-97514110D01*
X140831678Y-96973735D01*
X140831678Y-96422775D01*
X140724190Y-95882400D01*
X140610407Y-95607702D01*
X149046903Y-95607702D01*
X149118486Y-95851671D01*
X149373996Y-95972571D01*
X149648184Y-96041300D01*
X149930512Y-96055217D01*
X150210130Y-96013787D01*
X150476292Y-95918603D01*
X150601514Y-95851671D01*
X150673097Y-95607702D01*
X149860000Y-94794605D01*
X149046903Y-95607702D01*
X140610407Y-95607702D01*
X140513347Y-95373379D01*
X140207249Y-94915272D01*
X139977489Y-94685512D01*
X148419783Y-94685512D01*
X148461213Y-94965130D01*
X148556397Y-95231292D01*
X148623329Y-95356514D01*
X148867298Y-95428097D01*
X149680395Y-94615000D01*
X150039605Y-94615000D01*
X150852702Y-95428097D01*
X151096671Y-95356514D01*
X151217571Y-95101004D01*
X151286300Y-94826816D01*
X151300217Y-94544488D01*
X151258787Y-94264870D01*
X151163603Y-93998708D01*
X151096671Y-93873486D01*
X150852702Y-93801903D01*
X150039605Y-94615000D01*
X149680395Y-94615000D01*
X148867298Y-93801903D01*
X148623329Y-93873486D01*
X148502429Y-94128996D01*
X148433700Y-94403184D01*
X148419783Y-94685512D01*
X139977489Y-94685512D01*
X139817661Y-94525684D01*
X139359554Y-94219586D01*
X138850533Y-94008743D01*
X138310158Y-93901255D01*
X137759198Y-93901255D01*
X137218823Y-94008743D01*
X136709802Y-94219586D01*
X136251695Y-94525684D01*
X135862107Y-94915272D01*
X135556009Y-95373379D01*
X135345166Y-95882400D01*
X135237678Y-96422775D01*
X123842322Y-96422775D01*
X123734834Y-95882400D01*
X123523991Y-95373379D01*
X123217893Y-94915272D01*
X122828305Y-94525684D01*
X122370198Y-94219586D01*
X121861177Y-94008743D01*
X121320802Y-93901255D01*
X120769842Y-93901255D01*
X120229467Y-94008743D01*
X119720446Y-94219586D01*
X119262339Y-94525684D01*
X118872751Y-94915272D01*
X118566653Y-95373379D01*
X118355810Y-95882400D01*
X118248322Y-96422775D01*
X107568908Y-96422775D01*
X107910141Y-96281432D01*
X108335491Y-95997222D01*
X108697222Y-95635491D01*
X108981432Y-95210141D01*
X109177199Y-94737517D01*
X109277000Y-94235782D01*
X109277000Y-93724218D01*
X109177199Y-93222483D01*
X108981432Y-92749859D01*
X108697222Y-92324509D01*
X108335491Y-91962778D01*
X107910141Y-91678568D01*
X107437517Y-91482801D01*
X106935782Y-91383000D01*
X106424218Y-91383000D01*
X105922483Y-91482801D01*
X105449859Y-91678568D01*
X105024509Y-91962778D01*
X104662778Y-92324509D01*
X104378568Y-92749859D01*
X104182801Y-93222483D01*
X104083000Y-93724218D01*
X81972679Y-93724218D01*
X81942273Y-93440841D01*
X81787279Y-92945474D01*
X81564258Y-92528228D01*
X81197499Y-92312106D01*
X79529605Y-93980000D01*
X79170395Y-93980000D01*
X77502501Y-92312106D01*
X77135742Y-92528228D01*
X76895062Y-92988105D01*
X76748725Y-93486098D01*
X76702352Y-94003071D01*
X75747000Y-94003071D01*
X75747000Y-93694670D01*
X75635670Y-93134976D01*
X75417288Y-92607756D01*
X75100247Y-92133270D01*
X75099478Y-92132501D01*
X77682106Y-92132501D01*
X79350000Y-93800395D01*
X81017894Y-92132501D01*
X80801772Y-91765742D01*
X80341895Y-91525062D01*
X79843902Y-91378725D01*
X79326929Y-91332352D01*
X78810841Y-91387727D01*
X78315474Y-91542721D01*
X77898228Y-91765742D01*
X77682106Y-92132501D01*
X75099478Y-92132501D01*
X74696730Y-91729753D01*
X74222244Y-91412712D01*
X73765722Y-91223614D01*
X112738000Y-91223614D01*
X112738000Y-91656386D01*
X112822430Y-92080841D01*
X112988044Y-92480670D01*
X113228479Y-92840506D01*
X113534494Y-93146521D01*
X113894330Y-93386956D01*
X114294159Y-93552570D01*
X114718614Y-93637000D01*
X115151386Y-93637000D01*
X115575841Y-93552570D01*
X115975670Y-93386956D01*
X116065300Y-93327067D01*
X130798518Y-93327067D01*
X130887036Y-93618886D01*
X131066886Y-93974975D01*
X131312750Y-94289135D01*
X131615179Y-94549293D01*
X131962551Y-94745451D01*
X132341517Y-94870071D01*
X132657678Y-94756194D01*
X132657678Y-93010907D01*
X132911678Y-93010907D01*
X132911678Y-94756194D01*
X133227839Y-94870071D01*
X133606805Y-94745451D01*
X133954177Y-94549293D01*
X134256606Y-94289135D01*
X134502470Y-93974975D01*
X134680596Y-93622298D01*
X149046903Y-93622298D01*
X149860000Y-94435395D01*
X150673097Y-93622298D01*
X150601514Y-93378329D01*
X150346004Y-93257429D01*
X150071816Y-93188700D01*
X149789488Y-93174783D01*
X149509870Y-93216213D01*
X149243708Y-93311397D01*
X149118486Y-93378329D01*
X149046903Y-93622298D01*
X134680596Y-93622298D01*
X134682320Y-93618886D01*
X134770838Y-93327067D01*
X134656625Y-93010907D01*
X132911678Y-93010907D01*
X132657678Y-93010907D01*
X130912731Y-93010907D01*
X130798518Y-93327067D01*
X116065300Y-93327067D01*
X116335506Y-93146521D01*
X116641521Y-92840506D01*
X116881956Y-92480670D01*
X116898492Y-92440747D01*
X130798518Y-92440747D01*
X130912731Y-92756907D01*
X132657678Y-92756907D01*
X132657678Y-91011620D01*
X132911678Y-91011620D01*
X132911678Y-92756907D01*
X134656625Y-92756907D01*
X134770838Y-92440747D01*
X134682320Y-92148928D01*
X134502470Y-91792839D01*
X134256606Y-91478679D01*
X133954177Y-91218521D01*
X133606805Y-91022363D01*
X133227839Y-90897743D01*
X132911678Y-91011620D01*
X132657678Y-91011620D01*
X132341517Y-90897743D01*
X131962551Y-91022363D01*
X131615179Y-91218521D01*
X131312750Y-91478679D01*
X131066886Y-91792839D01*
X130887036Y-92148928D01*
X130798518Y-92440747D01*
X116898492Y-92440747D01*
X117047570Y-92080841D01*
X117132000Y-91656386D01*
X117132000Y-91223614D01*
X117047570Y-90799159D01*
X116881956Y-90399330D01*
X116641521Y-90039494D01*
X116335506Y-89733479D01*
X115975670Y-89493044D01*
X115575841Y-89327430D01*
X115151386Y-89243000D01*
X114718614Y-89243000D01*
X114294159Y-89327430D01*
X113894330Y-89493044D01*
X113534494Y-89733479D01*
X113228479Y-90039494D01*
X112988044Y-90399330D01*
X112822430Y-90799159D01*
X112738000Y-91223614D01*
X73765722Y-91223614D01*
X73695024Y-91194330D01*
X73135330Y-91083000D01*
X72564670Y-91083000D01*
X72004976Y-91194330D01*
X71477756Y-91412712D01*
X71272000Y-91550194D01*
X71272000Y-88383916D01*
X127143000Y-88383916D01*
X127143000Y-88856084D01*
X127235115Y-89319179D01*
X127415806Y-89755405D01*
X127678129Y-90147998D01*
X128012002Y-90481871D01*
X128404595Y-90744194D01*
X128840821Y-90924885D01*
X129303916Y-91017000D01*
X129776084Y-91017000D01*
X130239179Y-90924885D01*
X130675405Y-90744194D01*
X131067998Y-90481871D01*
X131401871Y-90147998D01*
X131664194Y-89755405D01*
X131844885Y-89319179D01*
X131937000Y-88856084D01*
X131937000Y-88383916D01*
X131844885Y-87920821D01*
X131664194Y-87484595D01*
X131590443Y-87374218D01*
X144723000Y-87374218D01*
X144723000Y-87885782D01*
X144822801Y-88387517D01*
X145018568Y-88860141D01*
X145302778Y-89285491D01*
X145664509Y-89647222D01*
X146089859Y-89931432D01*
X146562483Y-90127199D01*
X147064218Y-90227000D01*
X147575782Y-90227000D01*
X148077517Y-90127199D01*
X148550141Y-89931432D01*
X148975491Y-89647222D01*
X149337222Y-89285491D01*
X149621432Y-88860141D01*
X149817199Y-88387517D01*
X149917000Y-87885782D01*
X149917000Y-87374218D01*
X149817199Y-86872483D01*
X149621432Y-86399859D01*
X149337222Y-85974509D01*
X148975491Y-85612778D01*
X148550141Y-85328568D01*
X148077517Y-85132801D01*
X147575782Y-85033000D01*
X147064218Y-85033000D01*
X146562483Y-85132801D01*
X146089859Y-85328568D01*
X145664509Y-85612778D01*
X145302778Y-85974509D01*
X145018568Y-86399859D01*
X144822801Y-86872483D01*
X144723000Y-87374218D01*
X131590443Y-87374218D01*
X131401871Y-87092002D01*
X131067998Y-86758129D01*
X130675405Y-86495806D01*
X130239179Y-86315115D01*
X129776084Y-86223000D01*
X129303916Y-86223000D01*
X128840821Y-86315115D01*
X128404595Y-86495806D01*
X128012002Y-86758129D01*
X127678129Y-87092002D01*
X127415806Y-87484595D01*
X127235115Y-87920821D01*
X127143000Y-88383916D01*
X71272000Y-88383916D01*
X71272000Y-86145413D01*
X94294192Y-86145413D01*
X94389956Y-86409814D01*
X94679571Y-86550704D01*
X94991108Y-86632384D01*
X95312595Y-86651718D01*
X95631675Y-86607961D01*
X95936088Y-86502795D01*
X96110044Y-86409814D01*
X96205808Y-86145413D01*
X95250000Y-85189605D01*
X94294192Y-86145413D01*
X71272000Y-86145413D01*
X71272000Y-85072595D01*
X93608282Y-85072595D01*
X93652039Y-85391675D01*
X93757205Y-85696088D01*
X93850186Y-85870044D01*
X94114587Y-85965808D01*
X95070395Y-85010000D01*
X95429605Y-85010000D01*
X96385413Y-85965808D01*
X96649814Y-85870044D01*
X96790704Y-85580429D01*
X96872384Y-85268892D01*
X96891718Y-84947405D01*
X96847961Y-84628325D01*
X96742795Y-84323912D01*
X96649814Y-84149956D01*
X96385413Y-84054192D01*
X95429605Y-85010000D01*
X95070395Y-85010000D01*
X94114587Y-84054192D01*
X93850186Y-84149956D01*
X93709296Y-84439571D01*
X93627616Y-84751108D01*
X93608282Y-85072595D01*
X71272000Y-85072595D01*
X71272000Y-83874587D01*
X94294192Y-83874587D01*
X95250000Y-84830395D01*
X96205808Y-83874587D01*
X96110044Y-83610186D01*
X95820429Y-83469296D01*
X95508892Y-83387616D01*
X95187405Y-83368282D01*
X94868325Y-83412039D01*
X94563912Y-83517205D01*
X94389956Y-83610186D01*
X94294192Y-83874587D01*
X71272000Y-83874587D01*
X71272000Y-75517414D01*
X71982191Y-75517414D01*
X72414368Y-76068536D01*
X73180351Y-76488629D01*
X74013573Y-76751215D01*
X74882013Y-76846201D01*
X75752297Y-76769938D01*
X76590980Y-76525356D01*
X77365833Y-76121855D01*
X77445632Y-76068536D01*
X77877809Y-75517414D01*
X74930000Y-72569605D01*
X71982191Y-75517414D01*
X71272000Y-75517414D01*
X71272000Y-74921736D01*
X71802586Y-75337809D01*
X74750395Y-72390000D01*
X75109605Y-72390000D01*
X78057414Y-75337809D01*
X78608536Y-74905632D01*
X79028629Y-74139649D01*
X79291215Y-73306427D01*
X79386201Y-72437987D01*
X79309938Y-71567703D01*
X79065356Y-70729020D01*
X78661855Y-69954167D01*
X78608536Y-69874368D01*
X78057414Y-69442191D01*
X75109605Y-72390000D01*
X74750395Y-72390000D01*
X71802586Y-69442191D01*
X71272000Y-69858264D01*
X71272000Y-69262586D01*
X71982191Y-69262586D01*
X74930000Y-72210395D01*
X77877809Y-69262586D01*
X77445632Y-68711464D01*
X76679649Y-68291371D01*
X75846427Y-68028785D01*
X74977987Y-67933799D01*
X74107703Y-68010062D01*
X73269020Y-68254644D01*
X72494167Y-68658145D01*
X72414368Y-68711464D01*
X71982191Y-69262586D01*
X71272000Y-69262586D01*
X71272000Y-61722000D01*
X85598000Y-61722000D01*
X85598000Y-76835000D01*
%TA.AperFunction,Conductor*%
D28*
G36*
X85598000Y-76835000D02*
G01*
X85600440Y-76859776D01*
X85607667Y-76883601D01*
X85624752Y-76912970D01*
X90069752Y-82627970D01*
X90086890Y-82646030D01*
X90107221Y-82660398D01*
X90129965Y-82670525D01*
X90154248Y-82676019D01*
X90170000Y-82677000D01*
X103489366Y-82677000D01*
X108554198Y-83943208D01*
X108585000Y-83947000D01*
X118745000Y-83947000D01*
X118769776Y-83944560D01*
X118793601Y-83937333D01*
X118815557Y-83925597D01*
X118834803Y-83909803D01*
X118844862Y-83898463D01*
X123191615Y-78366231D01*
X126758374Y-78366231D01*
X126840727Y-78619289D01*
X127111418Y-78749086D01*
X127402230Y-78823580D01*
X127701988Y-78839908D01*
X127999171Y-78797443D01*
X128282359Y-78697816D01*
X128429273Y-78619289D01*
X128511626Y-78366231D01*
X135013374Y-78366231D01*
X135095727Y-78619289D01*
X135366418Y-78749086D01*
X135657230Y-78823580D01*
X135956988Y-78839908D01*
X136254171Y-78797443D01*
X136537359Y-78697816D01*
X136684273Y-78619289D01*
X136766626Y-78366231D01*
X142633374Y-78366231D01*
X142715727Y-78619289D01*
X142986418Y-78749086D01*
X143277230Y-78823580D01*
X143576988Y-78839908D01*
X143874171Y-78797443D01*
X144157359Y-78697816D01*
X144304273Y-78619289D01*
X144386626Y-78366231D01*
X150888374Y-78366231D01*
X150970727Y-78619289D01*
X151241418Y-78749086D01*
X151532230Y-78823580D01*
X151831988Y-78839908D01*
X152129171Y-78797443D01*
X152412359Y-78697816D01*
X152559273Y-78619289D01*
X152641626Y-78366231D01*
X151765000Y-77489605D01*
X150888374Y-78366231D01*
X144386626Y-78366231D01*
X143510000Y-77489605D01*
X142633374Y-78366231D01*
X136766626Y-78366231D01*
X135890000Y-77489605D01*
X135013374Y-78366231D01*
X128511626Y-78366231D01*
X127635000Y-77489605D01*
X126758374Y-78366231D01*
X123191615Y-78366231D01*
X123968878Y-77376988D01*
X126105092Y-77376988D01*
X126147557Y-77674171D01*
X126247184Y-77957359D01*
X126325711Y-78104273D01*
X126578769Y-78186626D01*
X127455395Y-77310000D01*
X127814605Y-77310000D01*
X128691231Y-78186626D01*
X128944289Y-78104273D01*
X129074086Y-77833582D01*
X129148580Y-77542770D01*
X129157610Y-77376988D01*
X134360092Y-77376988D01*
X134402557Y-77674171D01*
X134502184Y-77957359D01*
X134580711Y-78104273D01*
X134833769Y-78186626D01*
X135710395Y-77310000D01*
X136069605Y-77310000D01*
X136946231Y-78186626D01*
X137199289Y-78104273D01*
X137329086Y-77833582D01*
X137403580Y-77542770D01*
X137412610Y-77376988D01*
X141980092Y-77376988D01*
X142022557Y-77674171D01*
X142122184Y-77957359D01*
X142200711Y-78104273D01*
X142453769Y-78186626D01*
X143330395Y-77310000D01*
X143689605Y-77310000D01*
X144566231Y-78186626D01*
X144819289Y-78104273D01*
X144949086Y-77833582D01*
X145023580Y-77542770D01*
X145032610Y-77376988D01*
X150235092Y-77376988D01*
X150277557Y-77674171D01*
X150377184Y-77957359D01*
X150455711Y-78104273D01*
X150708769Y-78186626D01*
X151585395Y-77310000D01*
X151944605Y-77310000D01*
X152821231Y-78186626D01*
X153074289Y-78104273D01*
X153204086Y-77833582D01*
X153278580Y-77542770D01*
X153294908Y-77243012D01*
X153252443Y-76945829D01*
X153152816Y-76662641D01*
X153074289Y-76515727D01*
X152821231Y-76433374D01*
X151944605Y-77310000D01*
X151585395Y-77310000D01*
X150708769Y-76433374D01*
X150455711Y-76515727D01*
X150325914Y-76786418D01*
X150251420Y-77077230D01*
X150235092Y-77376988D01*
X145032610Y-77376988D01*
X145039908Y-77243012D01*
X144997443Y-76945829D01*
X144897816Y-76662641D01*
X144819289Y-76515727D01*
X144566231Y-76433374D01*
X143689605Y-77310000D01*
X143330395Y-77310000D01*
X142453769Y-76433374D01*
X142200711Y-76515727D01*
X142070914Y-76786418D01*
X141996420Y-77077230D01*
X141980092Y-77376988D01*
X137412610Y-77376988D01*
X137419908Y-77243012D01*
X137377443Y-76945829D01*
X137277816Y-76662641D01*
X137199289Y-76515727D01*
X136946231Y-76433374D01*
X136069605Y-77310000D01*
X135710395Y-77310000D01*
X134833769Y-76433374D01*
X134580711Y-76515727D01*
X134450914Y-76786418D01*
X134376420Y-77077230D01*
X134360092Y-77376988D01*
X129157610Y-77376988D01*
X129164908Y-77243012D01*
X129122443Y-76945829D01*
X129022816Y-76662641D01*
X128944289Y-76515727D01*
X128691231Y-76433374D01*
X127814605Y-77310000D01*
X127455395Y-77310000D01*
X126578769Y-76433374D01*
X126325711Y-76515727D01*
X126195914Y-76786418D01*
X126121420Y-77077230D01*
X126105092Y-77376988D01*
X123968878Y-77376988D01*
X124851407Y-76253769D01*
X126758374Y-76253769D01*
X127635000Y-77130395D01*
X128511626Y-76253769D01*
X135013374Y-76253769D01*
X135890000Y-77130395D01*
X136766626Y-76253769D01*
X142633374Y-76253769D01*
X143510000Y-77130395D01*
X144386626Y-76253769D01*
X150888374Y-76253769D01*
X151765000Y-77130395D01*
X152641626Y-76253769D01*
X152559273Y-76000711D01*
X152288582Y-75870914D01*
X151997770Y-75796420D01*
X151698012Y-75780092D01*
X151400829Y-75822557D01*
X151117641Y-75922184D01*
X150970727Y-76000711D01*
X150888374Y-76253769D01*
X144386626Y-76253769D01*
X144304273Y-76000711D01*
X144033582Y-75870914D01*
X143742770Y-75796420D01*
X143443012Y-75780092D01*
X143145829Y-75822557D01*
X142862641Y-75922184D01*
X142715727Y-76000711D01*
X142633374Y-76253769D01*
X136766626Y-76253769D01*
X136684273Y-76000711D01*
X136413582Y-75870914D01*
X136122770Y-75796420D01*
X135823012Y-75780092D01*
X135525829Y-75822557D01*
X135242641Y-75922184D01*
X135095727Y-76000711D01*
X135013374Y-76253769D01*
X128511626Y-76253769D01*
X128429273Y-76000711D01*
X128158582Y-75870914D01*
X127867770Y-75796420D01*
X127568012Y-75780092D01*
X127270829Y-75822557D01*
X126987641Y-75922184D01*
X126840727Y-76000711D01*
X126758374Y-76253769D01*
X124851407Y-76253769D01*
X125791726Y-75057000D01*
X154813000Y-75057000D01*
X154813000Y-103505000D01*
X154815440Y-103529776D01*
X154822667Y-103553601D01*
X154834403Y-103575557D01*
X154850197Y-103594803D01*
X154869443Y-103610597D01*
X154891399Y-103622333D01*
X154915224Y-103629560D01*
X154940000Y-103632000D01*
X160655000Y-103632000D01*
X160679776Y-103629560D01*
X160703601Y-103622333D01*
X160725557Y-103610597D01*
X160744803Y-103594803D01*
X160760089Y-103576311D01*
X162253938Y-101374849D01*
X170364000Y-101374849D01*
X170364000Y-101825151D01*
X170451850Y-102266802D01*
X170624173Y-102682827D01*
X170874348Y-103057240D01*
X171192760Y-103375652D01*
X171567173Y-103625827D01*
X171983198Y-103798150D01*
X172424849Y-103886000D01*
X172875151Y-103886000D01*
X173316802Y-103798150D01*
X173732827Y-103625827D01*
X174107240Y-103375652D01*
X174425652Y-103057240D01*
X174675827Y-102682827D01*
X174848150Y-102266802D01*
X174936000Y-101825151D01*
X174936000Y-101374849D01*
X193364000Y-101374849D01*
X193364000Y-101825151D01*
X193451850Y-102266802D01*
X193624173Y-102682827D01*
X193874348Y-103057240D01*
X194192760Y-103375652D01*
X194567173Y-103625827D01*
X194983198Y-103798150D01*
X195424849Y-103886000D01*
X195875151Y-103886000D01*
X196316802Y-103798150D01*
X196732827Y-103625827D01*
X197107240Y-103375652D01*
X197425652Y-103057240D01*
X197675827Y-102682827D01*
X197848150Y-102266802D01*
X197936000Y-101825151D01*
X197936000Y-101374849D01*
X197848150Y-100933198D01*
X197675827Y-100517173D01*
X197425652Y-100142760D01*
X197107240Y-99824348D01*
X196732827Y-99574173D01*
X196316802Y-99401850D01*
X195875151Y-99314000D01*
X195424849Y-99314000D01*
X194983198Y-99401850D01*
X194567173Y-99574173D01*
X194192760Y-99824348D01*
X193874348Y-100142760D01*
X193624173Y-100517173D01*
X193451850Y-100933198D01*
X193364000Y-101374849D01*
X174936000Y-101374849D01*
X174848150Y-100933198D01*
X174675827Y-100517173D01*
X174425652Y-100142760D01*
X174107240Y-99824348D01*
X173732827Y-99574173D01*
X173316802Y-99401850D01*
X172875151Y-99314000D01*
X172424849Y-99314000D01*
X171983198Y-99401850D01*
X171567173Y-99574173D01*
X171192760Y-99824348D01*
X170874348Y-100142760D01*
X170624173Y-100517173D01*
X170451850Y-100933198D01*
X170364000Y-101374849D01*
X162253938Y-101374849D01*
X166879996Y-94557499D01*
X211082106Y-94557499D01*
X211298228Y-94924258D01*
X211758105Y-95164938D01*
X212256098Y-95311275D01*
X212773071Y-95357648D01*
X213289159Y-95302273D01*
X213784526Y-95147279D01*
X214201772Y-94924258D01*
X214417894Y-94557499D01*
X212750000Y-92889605D01*
X211082106Y-94557499D01*
X166879996Y-94557499D01*
X168118001Y-92733071D01*
X210102352Y-92733071D01*
X210157727Y-93249159D01*
X210312721Y-93744526D01*
X210535742Y-94161772D01*
X210902501Y-94377894D01*
X212570395Y-92710000D01*
X212929605Y-92710000D01*
X214597499Y-94377894D01*
X214964258Y-94161772D01*
X215204938Y-93701895D01*
X215351275Y-93203902D01*
X215397648Y-92686929D01*
X215342273Y-92170841D01*
X215187279Y-91675474D01*
X214964258Y-91258228D01*
X214597499Y-91042106D01*
X212929605Y-92710000D01*
X212570395Y-92710000D01*
X210902501Y-91042106D01*
X210535742Y-91258228D01*
X210295062Y-91718105D01*
X210148725Y-92216098D01*
X210102352Y-92733071D01*
X168118001Y-92733071D01*
X169387316Y-90862501D01*
X211082106Y-90862501D01*
X212750000Y-92530395D01*
X214417894Y-90862501D01*
X214201772Y-90495742D01*
X213741895Y-90255062D01*
X213243902Y-90108725D01*
X212726929Y-90062352D01*
X212210841Y-90117727D01*
X211715474Y-90272721D01*
X211298228Y-90495742D01*
X211082106Y-90862501D01*
X169387316Y-90862501D01*
X172787300Y-85852000D01*
X217043000Y-85852000D01*
X217043000Y-90820023D01*
X216999753Y-90863270D01*
X216682712Y-91337756D01*
X216464330Y-91864976D01*
X216353000Y-92424670D01*
X216353000Y-92995330D01*
X216464330Y-93555024D01*
X216682712Y-94082244D01*
X216999753Y-94556730D01*
X217043000Y-94599977D01*
X217043000Y-112299344D01*
X157462124Y-129413000D01*
X144907000Y-129413000D01*
X144907000Y-128215413D01*
X148904192Y-128215413D01*
X148999956Y-128479814D01*
X149289571Y-128620704D01*
X149601108Y-128702384D01*
X149922595Y-128721718D01*
X150241675Y-128677961D01*
X150546088Y-128572795D01*
X150720044Y-128479814D01*
X150815808Y-128215413D01*
X149860000Y-127259605D01*
X148904192Y-128215413D01*
X144907000Y-128215413D01*
X144907000Y-127142595D01*
X148218282Y-127142595D01*
X148262039Y-127461675D01*
X148367205Y-127766088D01*
X148460186Y-127940044D01*
X148724587Y-128035808D01*
X149680395Y-127080000D01*
X150039605Y-127080000D01*
X150995413Y-128035808D01*
X151259814Y-127940044D01*
X151400704Y-127650429D01*
X151482384Y-127338892D01*
X151501718Y-127017405D01*
X151457961Y-126698325D01*
X151352795Y-126393912D01*
X151259814Y-126219956D01*
X150995413Y-126124192D01*
X150039605Y-127080000D01*
X149680395Y-127080000D01*
X148724587Y-126124192D01*
X148460186Y-126219956D01*
X148319296Y-126509571D01*
X148237616Y-126821108D01*
X148218282Y-127142595D01*
X144907000Y-127142595D01*
X144907000Y-126365000D01*
X144904560Y-126340224D01*
X144897333Y-126316399D01*
X144885597Y-126294443D01*
X144869803Y-126275197D01*
X144850557Y-126259403D01*
X144828601Y-126247667D01*
X144804776Y-126240440D01*
X144780000Y-126238000D01*
X71272000Y-126238000D01*
X71272000Y-125944587D01*
X148904192Y-125944587D01*
X149860000Y-126900395D01*
X150815808Y-125944587D01*
X150720044Y-125680186D01*
X150430429Y-125539296D01*
X150118892Y-125457616D01*
X149797405Y-125438282D01*
X149478325Y-125482039D01*
X149173912Y-125587205D01*
X148999956Y-125680186D01*
X148904192Y-125944587D01*
X71272000Y-125944587D01*
X71272000Y-121990512D01*
X101334783Y-121990512D01*
X101376213Y-122270130D01*
X101471397Y-122536292D01*
X101538329Y-122661514D01*
X101782298Y-122733097D01*
X102571241Y-121944154D01*
X102571241Y-122303364D01*
X101961903Y-122912702D01*
X102033486Y-123156671D01*
X102288996Y-123277571D01*
X102563184Y-123346300D01*
X102730122Y-123354529D01*
X102807817Y-123499887D01*
X102982392Y-123712608D01*
X103195113Y-123887183D01*
X103437805Y-124016904D01*
X103701140Y-124096786D01*
X103975000Y-124123759D01*
X105575000Y-124123759D01*
X105848860Y-124096786D01*
X106112195Y-124016904D01*
X106354887Y-123887183D01*
X106567608Y-123712608D01*
X106742183Y-123499887D01*
X106871904Y-123257195D01*
X106951786Y-122993860D01*
X106978759Y-122720000D01*
X106978759Y-121120000D01*
X106969818Y-121029218D01*
X135198000Y-121029218D01*
X135198000Y-121540782D01*
X135297801Y-122042517D01*
X135493568Y-122515141D01*
X135777778Y-122940491D01*
X136139509Y-123302222D01*
X136564859Y-123586432D01*
X137037483Y-123782199D01*
X137539218Y-123882000D01*
X138050782Y-123882000D01*
X138552517Y-123782199D01*
X139025141Y-123586432D01*
X139450491Y-123302222D01*
X139812222Y-122940491D01*
X140096432Y-122515141D01*
X140292199Y-122042517D01*
X140392000Y-121540782D01*
X140392000Y-121029218D01*
X140292199Y-120527483D01*
X140096432Y-120054859D01*
X139812222Y-119629509D01*
X139450491Y-119267778D01*
X139025141Y-118983568D01*
X138552517Y-118787801D01*
X138050782Y-118688000D01*
X137539218Y-118688000D01*
X137037483Y-118787801D01*
X136564859Y-118983568D01*
X136139509Y-119267778D01*
X135777778Y-119629509D01*
X135493568Y-120054859D01*
X135297801Y-120527483D01*
X135198000Y-121029218D01*
X106969818Y-121029218D01*
X106951786Y-120846140D01*
X106871904Y-120582805D01*
X106742183Y-120340113D01*
X106567608Y-120127392D01*
X106354887Y-119952817D01*
X106112195Y-119823096D01*
X105848860Y-119743214D01*
X105575000Y-119716241D01*
X103975000Y-119716241D01*
X103701140Y-119743214D01*
X103437805Y-119823096D01*
X103195113Y-119952817D01*
X102982392Y-120127392D01*
X102807817Y-120340113D01*
X102732426Y-120481160D01*
X102704488Y-120479783D01*
X102424870Y-120521213D01*
X102158708Y-120616397D01*
X102033486Y-120683329D01*
X101961903Y-120927298D01*
X102571241Y-121536636D01*
X102571241Y-121895846D01*
X101782298Y-121106903D01*
X101538329Y-121178486D01*
X101417429Y-121433996D01*
X101348700Y-121708184D01*
X101334783Y-121990512D01*
X71272000Y-121990512D01*
X71272000Y-116847980D01*
X157651626Y-116847980D01*
X157771514Y-117132836D01*
X158095210Y-117293699D01*
X158444069Y-117388322D01*
X158804684Y-117413067D01*
X159163198Y-117366985D01*
X159505833Y-117251846D01*
X159728486Y-117132836D01*
X159848374Y-116847980D01*
X158750000Y-115749605D01*
X157651626Y-116847980D01*
X71272000Y-116847980D01*
X71272000Y-114307980D01*
X94786626Y-114307980D01*
X94906514Y-114592836D01*
X95230210Y-114753699D01*
X95579069Y-114848322D01*
X95939684Y-114873067D01*
X96298198Y-114826985D01*
X96640833Y-114711846D01*
X96863486Y-114592836D01*
X96983374Y-114307980D01*
X95885000Y-113209605D01*
X94786626Y-114307980D01*
X71272000Y-114307980D01*
X71272000Y-113084684D01*
X94041933Y-113084684D01*
X94088015Y-113443198D01*
X94203154Y-113785833D01*
X94322164Y-114008486D01*
X94607020Y-114128374D01*
X95705395Y-113030000D01*
X96064605Y-113030000D01*
X97162980Y-114128374D01*
X97447836Y-114008486D01*
X97608699Y-113684790D01*
X97703322Y-113335931D01*
X97728067Y-112975316D01*
X97702219Y-112774218D01*
X108528000Y-112774218D01*
X108528000Y-113285782D01*
X108627801Y-113787517D01*
X108823568Y-114260141D01*
X109107778Y-114685491D01*
X109469509Y-115047222D01*
X109894859Y-115331432D01*
X110367483Y-115527199D01*
X110869218Y-115627000D01*
X111380782Y-115627000D01*
X111882517Y-115527199D01*
X112355141Y-115331432D01*
X112780491Y-115047222D01*
X113142222Y-114685491D01*
X113426432Y-114260141D01*
X113622199Y-113787517D01*
X113722000Y-113285782D01*
X113722000Y-112774218D01*
X113683490Y-112580613D01*
X123498322Y-112580613D01*
X123498322Y-113131573D01*
X123605810Y-113671948D01*
X123816653Y-114180969D01*
X124122751Y-114639076D01*
X124512339Y-115028664D01*
X124970446Y-115334762D01*
X125479467Y-115545605D01*
X126019842Y-115653093D01*
X126570802Y-115653093D01*
X127111177Y-115545605D01*
X127620198Y-115334762D01*
X128078305Y-115028664D01*
X128467893Y-114639076D01*
X128773991Y-114180969D01*
X128984834Y-113671948D01*
X129092322Y-113131573D01*
X129092322Y-112580613D01*
X129987678Y-112580613D01*
X129987678Y-113131573D01*
X130095166Y-113671948D01*
X130306009Y-114180969D01*
X130612107Y-114639076D01*
X131001695Y-115028664D01*
X131459802Y-115334762D01*
X131968823Y-115545605D01*
X132509198Y-115653093D01*
X133060158Y-115653093D01*
X133202978Y-115624684D01*
X156906933Y-115624684D01*
X156953015Y-115983198D01*
X157068154Y-116325833D01*
X157187164Y-116548486D01*
X157472020Y-116668374D01*
X158570395Y-115570000D01*
X158929605Y-115570000D01*
X160027980Y-116668374D01*
X160312836Y-116548486D01*
X160473699Y-116224790D01*
X160568322Y-115875931D01*
X160593067Y-115515316D01*
X160546985Y-115156802D01*
X160431846Y-114814167D01*
X160312836Y-114591514D01*
X160027980Y-114471626D01*
X158929605Y-115570000D01*
X158570395Y-115570000D01*
X157472020Y-114471626D01*
X157187164Y-114591514D01*
X157026301Y-114915210D01*
X156931678Y-115264069D01*
X156906933Y-115624684D01*
X133202978Y-115624684D01*
X133600533Y-115545605D01*
X134109554Y-115334762D01*
X134567661Y-115028664D01*
X134957249Y-114639076D01*
X135189144Y-114292020D01*
X157651626Y-114292020D01*
X158750000Y-115390395D01*
X159848374Y-114292020D01*
X159728486Y-114007164D01*
X159404790Y-113846301D01*
X159055931Y-113751678D01*
X158695316Y-113726933D01*
X158336802Y-113773015D01*
X157994167Y-113888154D01*
X157771514Y-114007164D01*
X157651626Y-114292020D01*
X135189144Y-114292020D01*
X135263347Y-114180969D01*
X135474190Y-113671948D01*
X135581678Y-113131573D01*
X135581678Y-112580613D01*
X135489599Y-112117702D01*
X184606903Y-112117702D01*
X184678486Y-112361671D01*
X184933996Y-112482571D01*
X185208184Y-112551300D01*
X185490512Y-112565217D01*
X185770130Y-112523787D01*
X186036292Y-112428603D01*
X186161514Y-112361671D01*
X186233097Y-112117702D01*
X185420000Y-111304605D01*
X184606903Y-112117702D01*
X135489599Y-112117702D01*
X135474190Y-112040238D01*
X135263347Y-111531217D01*
X134957249Y-111073110D01*
X134567661Y-110683522D01*
X134109554Y-110377424D01*
X133600533Y-110166581D01*
X133060158Y-110059093D01*
X132509198Y-110059093D01*
X131968823Y-110166581D01*
X131459802Y-110377424D01*
X131001695Y-110683522D01*
X130612107Y-111073110D01*
X130306009Y-111531217D01*
X130095166Y-112040238D01*
X129987678Y-112580613D01*
X129092322Y-112580613D01*
X128984834Y-112040238D01*
X128773991Y-111531217D01*
X128467893Y-111073110D01*
X128078305Y-110683522D01*
X127620198Y-110377424D01*
X127111177Y-110166581D01*
X126570802Y-110059093D01*
X126019842Y-110059093D01*
X125479467Y-110166581D01*
X124970446Y-110377424D01*
X124512339Y-110683522D01*
X124122751Y-111073110D01*
X123816653Y-111531217D01*
X123605810Y-112040238D01*
X123498322Y-112580613D01*
X113683490Y-112580613D01*
X113622199Y-112272483D01*
X113426432Y-111799859D01*
X113142222Y-111374509D01*
X112780491Y-111012778D01*
X112355141Y-110728568D01*
X111882517Y-110532801D01*
X111380782Y-110433000D01*
X110869218Y-110433000D01*
X110367483Y-110532801D01*
X109894859Y-110728568D01*
X109469509Y-111012778D01*
X109107778Y-111374509D01*
X108823568Y-111799859D01*
X108627801Y-112272483D01*
X108528000Y-112774218D01*
X97702219Y-112774218D01*
X97681985Y-112616802D01*
X97566846Y-112274167D01*
X97447836Y-112051514D01*
X97162980Y-111931626D01*
X96064605Y-113030000D01*
X95705395Y-113030000D01*
X94607020Y-111931626D01*
X94322164Y-112051514D01*
X94161301Y-112375210D01*
X94066678Y-112724069D01*
X94041933Y-113084684D01*
X71272000Y-113084684D01*
X71272000Y-111752020D01*
X94786626Y-111752020D01*
X95885000Y-112850395D01*
X96983374Y-111752020D01*
X96863486Y-111467164D01*
X96539790Y-111306301D01*
X96190931Y-111211678D01*
X95830316Y-111186933D01*
X95471802Y-111233015D01*
X95129167Y-111348154D01*
X94906514Y-111467164D01*
X94786626Y-111752020D01*
X71272000Y-111752020D01*
X71272000Y-108766265D01*
X118248322Y-108766265D01*
X118248322Y-109317225D01*
X118355810Y-109857600D01*
X118566653Y-110366621D01*
X118872751Y-110824728D01*
X119262339Y-111214316D01*
X119720446Y-111520414D01*
X120229467Y-111731257D01*
X120769842Y-111838745D01*
X121320802Y-111838745D01*
X121861177Y-111731257D01*
X122370198Y-111520414D01*
X122828305Y-111214316D01*
X123217893Y-110824728D01*
X123523991Y-110366621D01*
X123734834Y-109857600D01*
X123842322Y-109317225D01*
X123842322Y-108766265D01*
X135237678Y-108766265D01*
X135237678Y-109317225D01*
X135345166Y-109857600D01*
X135556009Y-110366621D01*
X135862107Y-110824728D01*
X136251695Y-111214316D01*
X136709802Y-111520414D01*
X137218823Y-111731257D01*
X137759198Y-111838745D01*
X138310158Y-111838745D01*
X138850533Y-111731257D01*
X139359554Y-111520414D01*
X139817661Y-111214316D01*
X139836465Y-111195512D01*
X183979783Y-111195512D01*
X184021213Y-111475130D01*
X184116397Y-111741292D01*
X184183329Y-111866514D01*
X184427298Y-111938097D01*
X185240395Y-111125000D01*
X185599605Y-111125000D01*
X186412702Y-111938097D01*
X186656671Y-111866514D01*
X186777571Y-111611004D01*
X186846300Y-111336816D01*
X186860217Y-111054488D01*
X186838604Y-110908614D01*
X193383000Y-110908614D01*
X193383000Y-111341386D01*
X193467430Y-111765841D01*
X193633044Y-112165670D01*
X193873479Y-112525506D01*
X194179494Y-112831521D01*
X194539330Y-113071956D01*
X194939159Y-113237570D01*
X195363614Y-113322000D01*
X195796386Y-113322000D01*
X196220841Y-113237570D01*
X196620670Y-113071956D01*
X196980506Y-112831521D01*
X197286521Y-112525506D01*
X197526956Y-112165670D01*
X197692570Y-111765841D01*
X197777000Y-111341386D01*
X197777000Y-110908614D01*
X197692570Y-110484159D01*
X197526956Y-110084330D01*
X197286521Y-109724494D01*
X196980506Y-109418479D01*
X196620670Y-109178044D01*
X196220841Y-109012430D01*
X195796386Y-108928000D01*
X195363614Y-108928000D01*
X194939159Y-109012430D01*
X194539330Y-109178044D01*
X194179494Y-109418479D01*
X193873479Y-109724494D01*
X193633044Y-110084330D01*
X193467430Y-110484159D01*
X193383000Y-110908614D01*
X186838604Y-110908614D01*
X186818787Y-110774870D01*
X186723603Y-110508708D01*
X186656671Y-110383486D01*
X186412702Y-110311903D01*
X185599605Y-111125000D01*
X185240395Y-111125000D01*
X184427298Y-110311903D01*
X184183329Y-110383486D01*
X184062429Y-110638996D01*
X183993700Y-110913184D01*
X183979783Y-111195512D01*
X139836465Y-111195512D01*
X140207249Y-110824728D01*
X140513347Y-110366621D01*
X140610406Y-110132298D01*
X184606903Y-110132298D01*
X185420000Y-110945395D01*
X186233097Y-110132298D01*
X186161514Y-109888329D01*
X185906004Y-109767429D01*
X185631816Y-109698700D01*
X185349488Y-109684783D01*
X185069870Y-109726213D01*
X184803708Y-109821397D01*
X184678486Y-109888329D01*
X184606903Y-110132298D01*
X140610406Y-110132298D01*
X140724190Y-109857600D01*
X140831678Y-109317225D01*
X140831678Y-108766265D01*
X140724190Y-108225890D01*
X140513347Y-107716869D01*
X140207249Y-107258762D01*
X139817661Y-106869174D01*
X139359554Y-106563076D01*
X138850533Y-106352233D01*
X138310158Y-106244745D01*
X137759198Y-106244745D01*
X137218823Y-106352233D01*
X136709802Y-106563076D01*
X136251695Y-106869174D01*
X135862107Y-107258762D01*
X135556009Y-107716869D01*
X135345166Y-108225890D01*
X135237678Y-108766265D01*
X123842322Y-108766265D01*
X123734834Y-108225890D01*
X123523991Y-107716869D01*
X123217893Y-107258762D01*
X122828305Y-106869174D01*
X122370198Y-106563076D01*
X121861177Y-106352233D01*
X121320802Y-106244745D01*
X120769842Y-106244745D01*
X120229467Y-106352233D01*
X119720446Y-106563076D01*
X119262339Y-106869174D01*
X118872751Y-107258762D01*
X118566653Y-107716869D01*
X118355810Y-108225890D01*
X118248322Y-108766265D01*
X71272000Y-108766265D01*
X71272000Y-105880000D01*
X147656241Y-105880000D01*
X147656241Y-107480000D01*
X147683214Y-107753860D01*
X147763096Y-108017195D01*
X147892817Y-108259887D01*
X148067392Y-108472608D01*
X148280113Y-108647183D01*
X148421160Y-108722574D01*
X148419783Y-108750512D01*
X148461213Y-109030130D01*
X148556397Y-109296292D01*
X148623329Y-109421514D01*
X148867298Y-109493097D01*
X149476636Y-108883759D01*
X149835846Y-108883759D01*
X149046903Y-109672702D01*
X149118486Y-109916671D01*
X149373996Y-110037571D01*
X149648184Y-110106300D01*
X149930512Y-110120217D01*
X150210130Y-110078787D01*
X150476292Y-109983603D01*
X150601514Y-109916671D01*
X150673097Y-109672702D01*
X149884154Y-108883759D01*
X150243364Y-108883759D01*
X150852702Y-109493097D01*
X151096671Y-109421514D01*
X151217571Y-109166004D01*
X151286300Y-108891816D01*
X151294529Y-108724878D01*
X151439887Y-108647183D01*
X151652608Y-108472608D01*
X151827183Y-108259887D01*
X151956904Y-108017195D01*
X152036786Y-107753860D01*
X152063759Y-107480000D01*
X152063759Y-105880000D01*
X152036786Y-105606140D01*
X151956904Y-105342805D01*
X151827183Y-105100113D01*
X151652608Y-104887392D01*
X151439887Y-104712817D01*
X151197195Y-104583096D01*
X150933860Y-104503214D01*
X150660000Y-104476241D01*
X149060000Y-104476241D01*
X148786140Y-104503214D01*
X148522805Y-104583096D01*
X148280113Y-104712817D01*
X148067392Y-104887392D01*
X147892817Y-105100113D01*
X147763096Y-105342805D01*
X147683214Y-105606140D01*
X147656241Y-105880000D01*
X71272000Y-105880000D01*
X71272000Y-104147980D01*
X71926626Y-104147980D01*
X72046514Y-104432836D01*
X72370210Y-104593699D01*
X72719069Y-104688322D01*
X73079684Y-104713067D01*
X73438198Y-104666985D01*
X73780833Y-104551846D01*
X74003486Y-104432836D01*
X74123374Y-104147980D01*
X73025000Y-103049605D01*
X71926626Y-104147980D01*
X71272000Y-104147980D01*
X71272000Y-103414090D01*
X71343154Y-103625833D01*
X71462164Y-103848486D01*
X71747020Y-103968374D01*
X72845395Y-102870000D01*
X73204605Y-102870000D01*
X74302980Y-103968374D01*
X74587836Y-103848486D01*
X74748699Y-103524790D01*
X74843322Y-103175931D01*
X74868067Y-102815316D01*
X74842219Y-102614218D01*
X85668000Y-102614218D01*
X85668000Y-103125782D01*
X85767801Y-103627517D01*
X85963568Y-104100141D01*
X86247778Y-104525491D01*
X86609509Y-104887222D01*
X87034859Y-105171432D01*
X87507483Y-105367199D01*
X88009218Y-105467000D01*
X88520782Y-105467000D01*
X89022517Y-105367199D01*
X89495141Y-105171432D01*
X89920491Y-104887222D01*
X90282222Y-104525491D01*
X90566432Y-104100141D01*
X90762199Y-103627517D01*
X90862000Y-103125782D01*
X90862000Y-102614218D01*
X93288000Y-102614218D01*
X93288000Y-103125782D01*
X93387801Y-103627517D01*
X93583568Y-104100141D01*
X93867778Y-104525491D01*
X94229509Y-104887222D01*
X94654859Y-105171432D01*
X95127483Y-105367199D01*
X95629218Y-105467000D01*
X96140782Y-105467000D01*
X96642517Y-105367199D01*
X97115141Y-105171432D01*
X97540491Y-104887222D01*
X97902222Y-104525491D01*
X98186432Y-104100141D01*
X98382199Y-103627517D01*
X98482000Y-103125782D01*
X98482000Y-102614218D01*
X108528000Y-102614218D01*
X108528000Y-103125782D01*
X108627801Y-103627517D01*
X108823568Y-104100141D01*
X109107778Y-104525491D01*
X109469509Y-104887222D01*
X109894859Y-105171432D01*
X110367483Y-105367199D01*
X110869218Y-105467000D01*
X111380782Y-105467000D01*
X111882517Y-105367199D01*
X112355141Y-105171432D01*
X112780491Y-104887222D01*
X113142222Y-104525491D01*
X113426432Y-104100141D01*
X113622199Y-103627517D01*
X113722000Y-103125782D01*
X113722000Y-102614218D01*
X113718082Y-102594520D01*
X116243000Y-102594520D01*
X116243000Y-103145480D01*
X116350488Y-103685855D01*
X116561331Y-104194876D01*
X116867429Y-104652983D01*
X117257017Y-105042571D01*
X117715124Y-105348669D01*
X118224145Y-105559512D01*
X118764520Y-105667000D01*
X119315480Y-105667000D01*
X119855855Y-105559512D01*
X120364876Y-105348669D01*
X120822983Y-105042571D01*
X121212571Y-104652983D01*
X121518669Y-104194876D01*
X121729512Y-103685855D01*
X121837000Y-103145480D01*
X121837000Y-102594520D01*
X121729512Y-102054145D01*
X121715369Y-102020000D01*
X124746241Y-102020000D01*
X124746241Y-103720000D01*
X124773214Y-103993860D01*
X124853096Y-104257195D01*
X124982817Y-104499887D01*
X125157392Y-104712608D01*
X125370113Y-104887183D01*
X125612805Y-105016904D01*
X125876140Y-105096786D01*
X126150000Y-105123759D01*
X127850000Y-105123759D01*
X128123860Y-105096786D01*
X128387195Y-105016904D01*
X128589864Y-104908576D01*
X128884574Y-105030649D01*
X129318690Y-105117000D01*
X129761310Y-105117000D01*
X130195426Y-105030649D01*
X130604353Y-104861265D01*
X130972379Y-104615359D01*
X131285359Y-104302379D01*
X131373524Y-104170431D01*
X131575901Y-104266825D01*
X131723110Y-104311476D01*
X131953000Y-104190155D01*
X131953000Y-102997000D01*
X132207000Y-102997000D01*
X132207000Y-104190155D01*
X132436890Y-104311476D01*
X132584099Y-104266825D01*
X132846920Y-104141641D01*
X133080269Y-103967588D01*
X133275178Y-103751355D01*
X133424157Y-103501252D01*
X133521481Y-103226891D01*
X133400814Y-102997000D01*
X132207000Y-102997000D01*
X131953000Y-102997000D01*
X131933000Y-102997000D01*
X131933000Y-102743000D01*
X131953000Y-102743000D01*
X131953000Y-101549845D01*
X132207000Y-101549845D01*
X132207000Y-102743000D01*
X133400814Y-102743000D01*
X133478749Y-102594520D01*
X137243000Y-102594520D01*
X137243000Y-103145480D01*
X137350488Y-103685855D01*
X137561331Y-104194876D01*
X137867429Y-104652983D01*
X138257017Y-105042571D01*
X138715124Y-105348669D01*
X139224145Y-105559512D01*
X139764520Y-105667000D01*
X140315480Y-105667000D01*
X140855855Y-105559512D01*
X141364876Y-105348669D01*
X141822983Y-105042571D01*
X142212571Y-104652983D01*
X142518669Y-104194876D01*
X142729512Y-103685855D01*
X142837000Y-103145480D01*
X142837000Y-102594520D01*
X142729512Y-102054145D01*
X142518669Y-101545124D01*
X142212571Y-101087017D01*
X141822983Y-100697429D01*
X141364876Y-100391331D01*
X140855855Y-100180488D01*
X140315480Y-100073000D01*
X139764520Y-100073000D01*
X139224145Y-100180488D01*
X138715124Y-100391331D01*
X138257017Y-100697429D01*
X137867429Y-101087017D01*
X137561331Y-101545124D01*
X137350488Y-102054145D01*
X137243000Y-102594520D01*
X133478749Y-102594520D01*
X133521481Y-102513109D01*
X133424157Y-102238748D01*
X133275178Y-101988645D01*
X133080269Y-101772412D01*
X132846920Y-101598359D01*
X132584099Y-101473175D01*
X132436890Y-101428524D01*
X132207000Y-101549845D01*
X131953000Y-101549845D01*
X131723110Y-101428524D01*
X131575901Y-101473175D01*
X131373524Y-101569569D01*
X131285359Y-101437621D01*
X130972379Y-101124641D01*
X130604353Y-100878735D01*
X130195426Y-100709351D01*
X129761310Y-100623000D01*
X129318690Y-100623000D01*
X128884574Y-100709351D01*
X128589864Y-100831424D01*
X128387195Y-100723096D01*
X128123860Y-100643214D01*
X127850000Y-100616241D01*
X126150000Y-100616241D01*
X125876140Y-100643214D01*
X125612805Y-100723096D01*
X125370113Y-100852817D01*
X125157392Y-101027392D01*
X124982817Y-101240113D01*
X124853096Y-101482805D01*
X124773214Y-101746140D01*
X124746241Y-102020000D01*
X121715369Y-102020000D01*
X121518669Y-101545124D01*
X121212571Y-101087017D01*
X120822983Y-100697429D01*
X120364876Y-100391331D01*
X119855855Y-100180488D01*
X119315480Y-100073000D01*
X118764520Y-100073000D01*
X118224145Y-100180488D01*
X117715124Y-100391331D01*
X117257017Y-100697429D01*
X116867429Y-101087017D01*
X116561331Y-101545124D01*
X116350488Y-102054145D01*
X116243000Y-102594520D01*
X113718082Y-102594520D01*
X113622199Y-102112483D01*
X113426432Y-101639859D01*
X113142222Y-101214509D01*
X112780491Y-100852778D01*
X112355141Y-100568568D01*
X111882517Y-100372801D01*
X111380782Y-100273000D01*
X110869218Y-100273000D01*
X110367483Y-100372801D01*
X109894859Y-100568568D01*
X109469509Y-100852778D01*
X109107778Y-101214509D01*
X108823568Y-101639859D01*
X108627801Y-102112483D01*
X108528000Y-102614218D01*
X98482000Y-102614218D01*
X98382199Y-102112483D01*
X98186432Y-101639859D01*
X97902222Y-101214509D01*
X97540491Y-100852778D01*
X97115141Y-100568568D01*
X96642517Y-100372801D01*
X96140782Y-100273000D01*
X95629218Y-100273000D01*
X95127483Y-100372801D01*
X94654859Y-100568568D01*
X94229509Y-100852778D01*
X93867778Y-101214509D01*
X93583568Y-101639859D01*
X93387801Y-102112483D01*
X93288000Y-102614218D01*
X90862000Y-102614218D01*
X90762199Y-102112483D01*
X90566432Y-101639859D01*
X90282222Y-101214509D01*
X89920491Y-100852778D01*
X89495141Y-100568568D01*
X89022517Y-100372801D01*
X88520782Y-100273000D01*
X88009218Y-100273000D01*
X87507483Y-100372801D01*
X87034859Y-100568568D01*
X86609509Y-100852778D01*
X86247778Y-101214509D01*
X85963568Y-101639859D01*
X85767801Y-102112483D01*
X85668000Y-102614218D01*
X74842219Y-102614218D01*
X74821985Y-102456802D01*
X74706846Y-102114167D01*
X74587836Y-101891514D01*
X74302980Y-101771626D01*
X73204605Y-102870000D01*
X72845395Y-102870000D01*
X71747020Y-101771626D01*
X71462164Y-101891514D01*
X71301301Y-102215210D01*
X71272000Y-102323238D01*
X71272000Y-101592020D01*
X71926626Y-101592020D01*
X73025000Y-102690395D01*
X74123374Y-101592020D01*
X74003486Y-101307164D01*
X73679790Y-101146301D01*
X73330931Y-101051678D01*
X72970316Y-101026933D01*
X72611802Y-101073015D01*
X72269167Y-101188154D01*
X72046514Y-101307164D01*
X71926626Y-101592020D01*
X71272000Y-101592020D01*
X71272000Y-96409806D01*
X71477756Y-96547288D01*
X72004976Y-96765670D01*
X72564670Y-96877000D01*
X73135330Y-96877000D01*
X73695024Y-96765670D01*
X74222244Y-96547288D01*
X74696730Y-96230247D01*
X75099478Y-95827499D01*
X77682106Y-95827499D01*
X77898228Y-96194258D01*
X78358105Y-96434938D01*
X78856098Y-96581275D01*
X79373071Y-96627648D01*
X79889159Y-96572273D01*
X80384526Y-96417279D01*
X80801772Y-96194258D01*
X81017894Y-95827499D01*
X79350000Y-94159605D01*
X77682106Y-95827499D01*
X75099478Y-95827499D01*
X75100247Y-95826730D01*
X75417288Y-95352244D01*
X75635670Y-94825024D01*
X75747000Y-94265330D01*
X75747000Y-94003071D01*
X76702352Y-94003071D01*
X76757727Y-94519159D01*
X76912721Y-95014526D01*
X77135742Y-95431772D01*
X77502501Y-95647894D01*
X79170395Y-93980000D01*
X79529605Y-93980000D01*
X81197499Y-95647894D01*
X81564258Y-95431772D01*
X81804938Y-94971895D01*
X81951275Y-94473902D01*
X81997648Y-93956929D01*
X81972679Y-93724218D01*
X104083000Y-93724218D01*
X104083000Y-94235782D01*
X104182801Y-94737517D01*
X104378568Y-95210141D01*
X104662778Y-95635491D01*
X105024509Y-95997222D01*
X105449859Y-96281432D01*
X105922483Y-96477199D01*
X106424218Y-96577000D01*
X106935782Y-96577000D01*
X107437517Y-96477199D01*
X107568908Y-96422775D01*
X118248322Y-96422775D01*
X118248322Y-96973735D01*
X118355810Y-97514110D01*
X118566653Y-98023131D01*
X118872751Y-98481238D01*
X119262339Y-98870826D01*
X119720446Y-99176924D01*
X120229467Y-99387767D01*
X120769842Y-99495255D01*
X121320802Y-99495255D01*
X121861177Y-99387767D01*
X122370198Y-99176924D01*
X122828305Y-98870826D01*
X123217893Y-98481238D01*
X123523991Y-98023131D01*
X123734834Y-97514110D01*
X123842322Y-96973735D01*
X123842322Y-96422775D01*
X135237678Y-96422775D01*
X135237678Y-96973735D01*
X135345166Y-97514110D01*
X135556009Y-98023131D01*
X135862107Y-98481238D01*
X136251695Y-98870826D01*
X136709802Y-99176924D01*
X137218823Y-99387767D01*
X137759198Y-99495255D01*
X138310158Y-99495255D01*
X138850533Y-99387767D01*
X139359554Y-99176924D01*
X139817661Y-98870826D01*
X140207249Y-98481238D01*
X140513347Y-98023131D01*
X140724190Y-97514110D01*
X140831678Y-96973735D01*
X140831678Y-96422775D01*
X140724190Y-95882400D01*
X140610407Y-95607702D01*
X149046903Y-95607702D01*
X149118486Y-95851671D01*
X149373996Y-95972571D01*
X149648184Y-96041300D01*
X149930512Y-96055217D01*
X150210130Y-96013787D01*
X150476292Y-95918603D01*
X150601514Y-95851671D01*
X150673097Y-95607702D01*
X149860000Y-94794605D01*
X149046903Y-95607702D01*
X140610407Y-95607702D01*
X140513347Y-95373379D01*
X140207249Y-94915272D01*
X139977489Y-94685512D01*
X148419783Y-94685512D01*
X148461213Y-94965130D01*
X148556397Y-95231292D01*
X148623329Y-95356514D01*
X148867298Y-95428097D01*
X149680395Y-94615000D01*
X150039605Y-94615000D01*
X150852702Y-95428097D01*
X151096671Y-95356514D01*
X151217571Y-95101004D01*
X151286300Y-94826816D01*
X151300217Y-94544488D01*
X151258787Y-94264870D01*
X151163603Y-93998708D01*
X151096671Y-93873486D01*
X150852702Y-93801903D01*
X150039605Y-94615000D01*
X149680395Y-94615000D01*
X148867298Y-93801903D01*
X148623329Y-93873486D01*
X148502429Y-94128996D01*
X148433700Y-94403184D01*
X148419783Y-94685512D01*
X139977489Y-94685512D01*
X139817661Y-94525684D01*
X139359554Y-94219586D01*
X138850533Y-94008743D01*
X138310158Y-93901255D01*
X137759198Y-93901255D01*
X137218823Y-94008743D01*
X136709802Y-94219586D01*
X136251695Y-94525684D01*
X135862107Y-94915272D01*
X135556009Y-95373379D01*
X135345166Y-95882400D01*
X135237678Y-96422775D01*
X123842322Y-96422775D01*
X123734834Y-95882400D01*
X123523991Y-95373379D01*
X123217893Y-94915272D01*
X122828305Y-94525684D01*
X122370198Y-94219586D01*
X121861177Y-94008743D01*
X121320802Y-93901255D01*
X120769842Y-93901255D01*
X120229467Y-94008743D01*
X119720446Y-94219586D01*
X119262339Y-94525684D01*
X118872751Y-94915272D01*
X118566653Y-95373379D01*
X118355810Y-95882400D01*
X118248322Y-96422775D01*
X107568908Y-96422775D01*
X107910141Y-96281432D01*
X108335491Y-95997222D01*
X108697222Y-95635491D01*
X108981432Y-95210141D01*
X109177199Y-94737517D01*
X109277000Y-94235782D01*
X109277000Y-93724218D01*
X109177199Y-93222483D01*
X108981432Y-92749859D01*
X108697222Y-92324509D01*
X108335491Y-91962778D01*
X107910141Y-91678568D01*
X107437517Y-91482801D01*
X106935782Y-91383000D01*
X106424218Y-91383000D01*
X105922483Y-91482801D01*
X105449859Y-91678568D01*
X105024509Y-91962778D01*
X104662778Y-92324509D01*
X104378568Y-92749859D01*
X104182801Y-93222483D01*
X104083000Y-93724218D01*
X81972679Y-93724218D01*
X81942273Y-93440841D01*
X81787279Y-92945474D01*
X81564258Y-92528228D01*
X81197499Y-92312106D01*
X79529605Y-93980000D01*
X79170395Y-93980000D01*
X77502501Y-92312106D01*
X77135742Y-92528228D01*
X76895062Y-92988105D01*
X76748725Y-93486098D01*
X76702352Y-94003071D01*
X75747000Y-94003071D01*
X75747000Y-93694670D01*
X75635670Y-93134976D01*
X75417288Y-92607756D01*
X75100247Y-92133270D01*
X75099478Y-92132501D01*
X77682106Y-92132501D01*
X79350000Y-93800395D01*
X81017894Y-92132501D01*
X80801772Y-91765742D01*
X80341895Y-91525062D01*
X79843902Y-91378725D01*
X79326929Y-91332352D01*
X78810841Y-91387727D01*
X78315474Y-91542721D01*
X77898228Y-91765742D01*
X77682106Y-92132501D01*
X75099478Y-92132501D01*
X74696730Y-91729753D01*
X74222244Y-91412712D01*
X73765722Y-91223614D01*
X112738000Y-91223614D01*
X112738000Y-91656386D01*
X112822430Y-92080841D01*
X112988044Y-92480670D01*
X113228479Y-92840506D01*
X113534494Y-93146521D01*
X113894330Y-93386956D01*
X114294159Y-93552570D01*
X114718614Y-93637000D01*
X115151386Y-93637000D01*
X115575841Y-93552570D01*
X115975670Y-93386956D01*
X116065300Y-93327067D01*
X130798518Y-93327067D01*
X130887036Y-93618886D01*
X131066886Y-93974975D01*
X131312750Y-94289135D01*
X131615179Y-94549293D01*
X131962551Y-94745451D01*
X132341517Y-94870071D01*
X132657678Y-94756194D01*
X132657678Y-93010907D01*
X132911678Y-93010907D01*
X132911678Y-94756194D01*
X133227839Y-94870071D01*
X133606805Y-94745451D01*
X133954177Y-94549293D01*
X134256606Y-94289135D01*
X134502470Y-93974975D01*
X134680596Y-93622298D01*
X149046903Y-93622298D01*
X149860000Y-94435395D01*
X150673097Y-93622298D01*
X150601514Y-93378329D01*
X150346004Y-93257429D01*
X150071816Y-93188700D01*
X149789488Y-93174783D01*
X149509870Y-93216213D01*
X149243708Y-93311397D01*
X149118486Y-93378329D01*
X149046903Y-93622298D01*
X134680596Y-93622298D01*
X134682320Y-93618886D01*
X134770838Y-93327067D01*
X134656625Y-93010907D01*
X132911678Y-93010907D01*
X132657678Y-93010907D01*
X130912731Y-93010907D01*
X130798518Y-93327067D01*
X116065300Y-93327067D01*
X116335506Y-93146521D01*
X116641521Y-92840506D01*
X116881956Y-92480670D01*
X116898492Y-92440747D01*
X130798518Y-92440747D01*
X130912731Y-92756907D01*
X132657678Y-92756907D01*
X132657678Y-91011620D01*
X132911678Y-91011620D01*
X132911678Y-92756907D01*
X134656625Y-92756907D01*
X134770838Y-92440747D01*
X134682320Y-92148928D01*
X134502470Y-91792839D01*
X134256606Y-91478679D01*
X133954177Y-91218521D01*
X133606805Y-91022363D01*
X133227839Y-90897743D01*
X132911678Y-91011620D01*
X132657678Y-91011620D01*
X132341517Y-90897743D01*
X131962551Y-91022363D01*
X131615179Y-91218521D01*
X131312750Y-91478679D01*
X131066886Y-91792839D01*
X130887036Y-92148928D01*
X130798518Y-92440747D01*
X116898492Y-92440747D01*
X117047570Y-92080841D01*
X117132000Y-91656386D01*
X117132000Y-91223614D01*
X117047570Y-90799159D01*
X116881956Y-90399330D01*
X116641521Y-90039494D01*
X116335506Y-89733479D01*
X115975670Y-89493044D01*
X115575841Y-89327430D01*
X115151386Y-89243000D01*
X114718614Y-89243000D01*
X114294159Y-89327430D01*
X113894330Y-89493044D01*
X113534494Y-89733479D01*
X113228479Y-90039494D01*
X112988044Y-90399330D01*
X112822430Y-90799159D01*
X112738000Y-91223614D01*
X73765722Y-91223614D01*
X73695024Y-91194330D01*
X73135330Y-91083000D01*
X72564670Y-91083000D01*
X72004976Y-91194330D01*
X71477756Y-91412712D01*
X71272000Y-91550194D01*
X71272000Y-88383916D01*
X127143000Y-88383916D01*
X127143000Y-88856084D01*
X127235115Y-89319179D01*
X127415806Y-89755405D01*
X127678129Y-90147998D01*
X128012002Y-90481871D01*
X128404595Y-90744194D01*
X128840821Y-90924885D01*
X129303916Y-91017000D01*
X129776084Y-91017000D01*
X130239179Y-90924885D01*
X130675405Y-90744194D01*
X131067998Y-90481871D01*
X131401871Y-90147998D01*
X131664194Y-89755405D01*
X131844885Y-89319179D01*
X131937000Y-88856084D01*
X131937000Y-88383916D01*
X131844885Y-87920821D01*
X131664194Y-87484595D01*
X131590443Y-87374218D01*
X144723000Y-87374218D01*
X144723000Y-87885782D01*
X144822801Y-88387517D01*
X145018568Y-88860141D01*
X145302778Y-89285491D01*
X145664509Y-89647222D01*
X146089859Y-89931432D01*
X146562483Y-90127199D01*
X147064218Y-90227000D01*
X147575782Y-90227000D01*
X148077517Y-90127199D01*
X148550141Y-89931432D01*
X148975491Y-89647222D01*
X149337222Y-89285491D01*
X149621432Y-88860141D01*
X149817199Y-88387517D01*
X149917000Y-87885782D01*
X149917000Y-87374218D01*
X149817199Y-86872483D01*
X149621432Y-86399859D01*
X149337222Y-85974509D01*
X148975491Y-85612778D01*
X148550141Y-85328568D01*
X148077517Y-85132801D01*
X147575782Y-85033000D01*
X147064218Y-85033000D01*
X146562483Y-85132801D01*
X146089859Y-85328568D01*
X145664509Y-85612778D01*
X145302778Y-85974509D01*
X145018568Y-86399859D01*
X144822801Y-86872483D01*
X144723000Y-87374218D01*
X131590443Y-87374218D01*
X131401871Y-87092002D01*
X131067998Y-86758129D01*
X130675405Y-86495806D01*
X130239179Y-86315115D01*
X129776084Y-86223000D01*
X129303916Y-86223000D01*
X128840821Y-86315115D01*
X128404595Y-86495806D01*
X128012002Y-86758129D01*
X127678129Y-87092002D01*
X127415806Y-87484595D01*
X127235115Y-87920821D01*
X127143000Y-88383916D01*
X71272000Y-88383916D01*
X71272000Y-86145413D01*
X94294192Y-86145413D01*
X94389956Y-86409814D01*
X94679571Y-86550704D01*
X94991108Y-86632384D01*
X95312595Y-86651718D01*
X95631675Y-86607961D01*
X95936088Y-86502795D01*
X96110044Y-86409814D01*
X96205808Y-86145413D01*
X95250000Y-85189605D01*
X94294192Y-86145413D01*
X71272000Y-86145413D01*
X71272000Y-85072595D01*
X93608282Y-85072595D01*
X93652039Y-85391675D01*
X93757205Y-85696088D01*
X93850186Y-85870044D01*
X94114587Y-85965808D01*
X95070395Y-85010000D01*
X95429605Y-85010000D01*
X96385413Y-85965808D01*
X96649814Y-85870044D01*
X96790704Y-85580429D01*
X96872384Y-85268892D01*
X96891718Y-84947405D01*
X96847961Y-84628325D01*
X96742795Y-84323912D01*
X96649814Y-84149956D01*
X96385413Y-84054192D01*
X95429605Y-85010000D01*
X95070395Y-85010000D01*
X94114587Y-84054192D01*
X93850186Y-84149956D01*
X93709296Y-84439571D01*
X93627616Y-84751108D01*
X93608282Y-85072595D01*
X71272000Y-85072595D01*
X71272000Y-83874587D01*
X94294192Y-83874587D01*
X95250000Y-84830395D01*
X96205808Y-83874587D01*
X96110044Y-83610186D01*
X95820429Y-83469296D01*
X95508892Y-83387616D01*
X95187405Y-83368282D01*
X94868325Y-83412039D01*
X94563912Y-83517205D01*
X94389956Y-83610186D01*
X94294192Y-83874587D01*
X71272000Y-83874587D01*
X71272000Y-75517414D01*
X71982191Y-75517414D01*
X72414368Y-76068536D01*
X73180351Y-76488629D01*
X74013573Y-76751215D01*
X74882013Y-76846201D01*
X75752297Y-76769938D01*
X76590980Y-76525356D01*
X77365833Y-76121855D01*
X77445632Y-76068536D01*
X77877809Y-75517414D01*
X74930000Y-72569605D01*
X71982191Y-75517414D01*
X71272000Y-75517414D01*
X71272000Y-74921736D01*
X71802586Y-75337809D01*
X74750395Y-72390000D01*
X75109605Y-72390000D01*
X78057414Y-75337809D01*
X78608536Y-74905632D01*
X79028629Y-74139649D01*
X79291215Y-73306427D01*
X79386201Y-72437987D01*
X79309938Y-71567703D01*
X79065356Y-70729020D01*
X78661855Y-69954167D01*
X78608536Y-69874368D01*
X78057414Y-69442191D01*
X75109605Y-72390000D01*
X74750395Y-72390000D01*
X71802586Y-69442191D01*
X71272000Y-69858264D01*
X71272000Y-69262586D01*
X71982191Y-69262586D01*
X74930000Y-72210395D01*
X77877809Y-69262586D01*
X77445632Y-68711464D01*
X76679649Y-68291371D01*
X75846427Y-68028785D01*
X74977987Y-67933799D01*
X74107703Y-68010062D01*
X73269020Y-68254644D01*
X72494167Y-68658145D01*
X72414368Y-68711464D01*
X71982191Y-69262586D01*
X71272000Y-69262586D01*
X71272000Y-61722000D01*
X85598000Y-61722000D01*
X85598000Y-76835000D01*
G37*
%TD.AperFunction*%
%TD*%
M02*
