M48
; DRILL file {KiCad 5.1.9-73d0e3b20d~88~ubuntu20.04.1} date Sun May  2 14:23:56 2021
; FORMAT={-:-/ absolute / inch / decimal}
; #@! TF.CreationDate,2021-05-02T14:23:56-04:00
; #@! TF.GenerationSoftware,Kicad,Pcbnew,5.1.9-73d0e3b20d~88~ubuntu20.04.1
; #@! TF.FileFunction,Plated,1,2,PTH
FMAT,2
INCH
T1C0.0315
T2C0.0394
T3C0.0400
T4C0.0402
T5C0.0472
T6C0.0512
T7C0.0709
T8C0.0866
T9C0.1181
T10C0.1693
%
G90
G05
T1
X4.0Y-5.25
X4.0463Y-4.8
X4.125Y-4.8
X4.4Y-5.25
X4.525Y-2.625
X4.525Y-3.025
X4.525Y-3.2
X4.525Y-3.6
X4.75Y-2.625
X4.75Y-3.025
X5.9Y-3.725
X5.9Y-4.2
X5.9Y-4.2787
X6.3Y-3.725
X7.3Y-4.375
X7.7Y-4.375
T2
X3.75Y-3.15
X3.75Y-3.3469
X5.0Y-4.05
X5.1Y-4.05
X5.2Y-4.05
X5.9Y-5.0031
X5.9Y-5.2
T3
X5.025Y-2.6697
X5.025Y-3.0437
X5.35Y-2.6697
X5.35Y-3.0437
X5.65Y-2.6697
X5.65Y-3.0437
X5.975Y-2.6697
X5.975Y-3.0437
X6.425Y-2.6563
X6.425Y-3.0303
X6.7972Y-4.0
X7.7028Y-4.0
T4
X3.9Y-5.75
X4.0181Y-5.75
X4.1362Y-5.75
X4.2543Y-5.75
X4.3724Y-5.75
X4.4906Y-5.75
T5
X2.875Y-4.05
X3.475Y-4.05
X3.75Y-2.2
X3.75Y-2.8
X3.775Y-4.05
X3.775Y-4.45
X4.2Y-2.9
X4.2Y-3.7
X4.375Y-4.05
X4.375Y-4.45
X5.425Y-4.775
X5.425Y-5.575
X5.8Y-3.45
X6.25Y-3.95
X6.25Y-4.55
X6.4Y-3.45
T6
X5.1Y-3.489
T7
X4.6866Y-4.05
X4.7656Y-3.807
X4.7656Y-4.293
X4.9723Y-4.4432
X5.2277Y-3.6568
X5.2277Y-4.4432
X5.4344Y-3.807
X5.4344Y-4.293
X5.5134Y-4.05
T8
X2.8681Y-3.7
X8.6319Y-3.65
T9
X3.124Y-3.7
X8.376Y-3.65
T10
X2.95Y-1.65
X2.95Y-2.85
X2.95Y-5.8
X8.55Y-1.65
X8.55Y-5.8
T0
M30
